<svg aria-hidden="true" style="position: absolute; width: 0; height: 0; overflow: hidden;" version="1.1" xmlns="http://www.w3.org/2000/svg" xmlns:xlink="http://www.w3.org/1999/xlink">
<defs>
<symbol id="icon-client-1" viewBox="0 0 59 32">
<path fill="#afb1b8" style="fill: var(--color1, #afb1b8)" d="M24.348 8.596l2.438 2.308-4.524-0.003v11.196h11.826v-4.281l2.435 2.305v-11.525h-12.174zM33.98 17.545l-6.911-6.543h6.911v6.543zM31.834 20.459h-7.702v-7.53h0.544v7.020h7.157v0.51zM25.951 23.587l-0.285 0.586-0.285-0.586h-0.239l0.415 0.781v0.455h0.216v-0.455l0.414-0.781h-0.238zM26.308 24.823l0.1-0.288h0.479l0.101 0.288h0.224l-0.468-1.236h-0.193l-0.467 1.236h0.223zM26.648 23.849l0.179 0.513h-0.358l0.179-0.513zM27.781 24.332c-0.031 0.048-0.047 0.1-0.047 0.157 0 0.104 0.037 0.189 0.11 0.254s0.172 0.097 0.294 0.097 0.228-0.033 0.316-0.099l0.070 0.082h0.239l-0.182-0.215c0.071-0.097 0.107-0.222 0.107-0.375h-0.179c0 0.083-0.017 0.159-0.052 0.227l-0.239-0.282 0.084-0.061c0.059-0.043 0.102-0.086 0.128-0.129s0.039-0.091 0.039-0.143c0-0.078-0.029-0.143-0.087-0.196s-0.131-0.080-0.221-0.080c-0.1 0-0.179 0.028-0.238 0.085s-0.088 0.132-0.088 0.229c0 0.040 0.009 0.081 0.028 0.123s0.053 0.094 0.101 0.155c-0.092 0.066-0.153 0.123-0.184 0.171zM28.339 24.606c-0.061 0.046-0.126 0.070-0.195 0.070-0.062 0-0.111-0.018-0.148-0.053s-0.055-0.082-0.055-0.139c0-0.066 0.034-0.125 0.102-0.177l0.026-0.019 0.27 0.318zM28.117 24.058c-0.058-0.072-0.087-0.132-0.087-0.179 0-0.041 0.012-0.076 0.036-0.103s0.056-0.041 0.096-0.041c0.037 0 0.068 0.012 0.093 0.035s0.037 0.050 0.037 0.082c0 0.049-0.018 0.089-0.053 0.12l-0.026 0.021-0.094 0.065zM30.13 24.73c0.085-0.074 0.134-0.177 0.146-0.309h-0.214c-0.011 0.088-0.038 0.151-0.081 0.189s-0.106 0.057-0.19 0.057c-0.092 0-0.162-0.035-0.211-0.105s-0.071-0.172-0.071-0.306v-0.11c0.001-0.132 0.027-0.232 0.076-0.3s0.122-0.103 0.216-0.103c0.080 0 0.141 0.020 0.183 0.059s0.068 0.103 0.078 0.192h0.214c-0.014-0.135-0.062-0.24-0.145-0.314s-0.193-0.111-0.329-0.111c-0.101 0-0.191 0.024-0.268 0.072s-0.136 0.117-0.177 0.206c-0.041 0.089-0.062 0.192-0.062 0.308v0.115c0.002 0.114 0.023 0.214 0.064 0.3s0.099 0.153 0.173 0.2c0.075 0.046 0.162 0.070 0.261 0.070 0.141 0 0.254-0.037 0.339-0.11zM31.392 24.557c0.042-0.092 0.063-0.198 0.063-0.319v-0.069c-0.001-0.121-0.022-0.226-0.065-0.317s-0.103-0.161-0.181-0.209c-0.078-0.049-0.167-0.073-0.267-0.073s-0.19 0.025-0.268 0.074c-0.078 0.049-0.138 0.119-0.181 0.211s-0.064 0.199-0.064 0.319v0.070c0.001 0.118 0.022 0.223 0.065 0.313s0.104 0.16 0.182 0.21c0.079 0.049 0.168 0.073 0.268 0.073 0.101 0 0.191-0.024 0.268-0.073s0.138-0.119 0.18-0.211zM31.162 23.858c0.052 0.073 0.078 0.178 0.078 0.315v0.065c0 0.139-0.026 0.245-0.077 0.318s-0.124 0.109-0.219 0.109c-0.094 0-0.168-0.037-0.221-0.111s-0.079-0.179-0.079-0.315v-0.071c0.001-0.133 0.028-0.236 0.080-0.308s0.125-0.11 0.218-0.11c0.095 0 0.168 0.037 0.22 0.11z"></path>
</symbol>
<symbol id="icon-client-2" viewBox="0 0 59 32">
<path fill="#afb1b8" style="fill: var(--color1, #afb1b8)" d="M28.561 8.225h-0.047c-0.073-0.004-0.146-0.006-0.219-0.008v0h-0.158c-0.138 0-0.279 0.004-0.419 0.011-0.011-0.001-0.021-0.001-0.032 0-1.268 0.072-2.51 0.389-3.658 0.933l-0.15 0.073v7.701l0.352-0.119c0.309-0.106 0.638-0.202 0.978-0.29 0.921-0.236 1.866-0.362 2.816-0.374v1.012c-0.126 0.001-0.248 0.004-0.37 0.011h-0.029c-0.731 0.040-1.457 0.151-2.166 0.333-0.899 0.225-1.766 0.563-2.581 1.006v-9.877c0.846-0.494 1.758-0.864 2.707-1.101 0.834-0.215 1.691-0.326 2.552-0.329h0.149c0.178 0.004 0.351 0.012 0.514 0.025 0.429 0.030 0.854 0.098 1.271 0.203v0.996c-0.405-0.094-0.817-0.156-1.232-0.186-0.008-0.001-0.017-0.001-0.025-0.002-0.086-0.007-0.172-0.015-0.252-0.015zM30.314 9.243c0.221 0.017 0.45 0.025 0.681 0.025 0.905-0.003 1.806-0.119 2.683-0.344 0.898-0.226 1.765-0.564 2.58-1.007v9.701c-0.847 0.493-1.758 0.864-2.708 1.101-0.834 0.214-1.691 0.325-2.552 0.328-0.652 0.005-1.302-0.071-1.936-0.228v-9.764c0.15 0.034 0.304 0.066 0.46 0.093 0.257 0.043 0.528 0.075 0.792 0.095zM35.251 9.319l-0.352 0.118c-0.324 0.109-0.65 0.206-0.978 0.293-0.956 0.246-1.938 0.371-2.924 0.375-0.23 0-0.441-0.006-0.645-0.019l-0.281-0.019v7.922l0.241 0.021c0.224 0.019 0.454 0.029 0.686 0.029 0.777-0.003 1.55-0.103 2.303-0.298 0.62-0.155 1.222-0.372 1.799-0.647l0.151-0.073v-7.704z"></path>
<path fill="#afb1b8" style="fill: var(--color1, #afb1b8)" d="M23.561 21.887c-0.051-0.052-0.112-0.094-0.179-0.121s-0.14-0.040-0.213-0.037c-0.077-0.001-0.154 0.013-0.226 0.042-0.066 0.026-0.126 0.066-0.176 0.116s-0.088 0.111-0.113 0.177c-0.028 0.069-0.041 0.144-0.041 0.218v1.32c-0.003 0.093 0.015 0.186 0.052 0.271 0.031 0.068 0.076 0.128 0.132 0.177 0.053 0.044 0.115 0.076 0.181 0.094 0.064 0.018 0.13 0.027 0.197 0.027 0.073 0.001 0.146-0.015 0.213-0.046 0.066-0.029 0.126-0.070 0.176-0.122 0.049-0.051 0.088-0.111 0.115-0.177 0.028-0.067 0.043-0.138 0.042-0.21v-0.148h-0.345v0.118c0.001 0.040-0.006 0.080-0.020 0.118-0.011 0.028-0.028 0.053-0.050 0.074-0.021 0.017-0.046 0.030-0.072 0.038-0.023 0.008-0.048 0.012-0.072 0.012-0.031 0.004-0.062-0.001-0.090-0.014s-0.053-0.032-0.071-0.057c-0.033-0.053-0.048-0.115-0.046-0.177v-1.23c-0.002-0.068 0.012-0.136 0.042-0.197 0.018-0.028 0.043-0.050 0.073-0.064s0.063-0.019 0.096-0.015c0.030-0.001 0.059 0.005 0.086 0.018s0.050 0.032 0.068 0.056c0.039 0.051 0.059 0.113 0.057 0.177v0.114h0.341v-0.134c0.001-0.079-0.014-0.157-0.042-0.231-0.025-0.069-0.065-0.132-0.115-0.186v0z"></path>
<path fill="#afb1b8" style="fill: var(--color1, #afb1b8)" d="M25.61 21.872c-0.11-0.093-0.249-0.144-0.392-0.145-0.070 0-0.14 0.013-0.206 0.037-0.067 0.024-0.129 0.061-0.182 0.108-0.057 0.051-0.103 0.114-0.134 0.185-0.035 0.081-0.052 0.168-0.050 0.256v1.266c-0.002 0.089 0.015 0.178 0.050 0.259 0.031 0.068 0.077 0.128 0.134 0.177 0.053 0.049 0.115 0.087 0.182 0.111 0.066 0.024 0.136 0.037 0.206 0.037s0.14-0.013 0.206-0.037c0.069-0.025 0.132-0.063 0.187-0.111s0.099-0.11 0.13-0.177c0.035-0.082 0.053-0.17 0.050-0.259v-1.266c0.002-0.088-0.015-0.175-0.050-0.256-0.031-0.070-0.075-0.133-0.13-0.185v0zM25.449 23.578c0.003 0.034-0.002 0.068-0.014 0.099s-0.031 0.060-0.055 0.084c-0.046 0.038-0.103 0.059-0.162 0.059s-0.117-0.021-0.162-0.059c-0.024-0.023-0.043-0.052-0.055-0.084s-0.017-0.066-0.014-0.099v-1.266c-0.003-0.034 0.002-0.068 0.014-0.099s0.031-0.060 0.055-0.084c0.046-0.038 0.103-0.059 0.162-0.059s0.117 0.021 0.162 0.059c0.024 0.023 0.043 0.052 0.055 0.084s0.017 0.066 0.014 0.099v1.266z"></path>
<path fill="#afb1b8" style="fill: var(--color1, #afb1b8)" d="M28.302 24.143v-2.396h-0.332l-0.436 1.268h-0.006l-0.439-1.268h-0.328v2.396h0.342v-1.458h0.006l0.335 1.030h0.171l0.338-1.030h0.006v1.458h0.342z"></path>
<path fill="#afb1b8" style="fill: var(--color1, #afb1b8)" d="M30.246 21.915c-0.053-0.059-0.119-0.104-0.194-0.131-0.080-0.026-0.164-0.039-0.248-0.037h-0.509v2.396h0.341v-0.936h0.176c0.107 0.005 0.213-0.018 0.308-0.065 0.078-0.043 0.142-0.106 0.187-0.183 0.039-0.064 0.066-0.135 0.078-0.209 0.013-0.090 0.020-0.181 0.018-0.272 0.003-0.115-0.008-0.23-0.033-0.342-0.023-0.083-0.066-0.159-0.126-0.22v0zM30.070 22.646c-0.001 0.043-0.012 0.086-0.032 0.125-0.020 0.037-0.050 0.066-0.088 0.084-0.051 0.023-0.106 0.033-0.161 0.030h-0.156v-0.815h0.176c0.053-0.003 0.106 0.008 0.154 0.030 0.035 0.020 0.063 0.051 0.080 0.088 0.019 0.042 0.029 0.087 0.030 0.134 0 0.050 0 0.104 0 0.159s0.003 0.113 0 0.165h-0.003z"></path>
<path fill="#afb1b8" style="fill: var(--color1, #afb1b8)" d="M31.864 21.747h-0.28l-0.528 2.396h0.341l0.1-0.515h0.465l0.1 0.515h0.341l-0.541-2.396zM31.549 23.302l0.168-0.869h0.006l0.167 0.869h-0.341z"></path>
<path fill="#afb1b8" style="fill: var(--color1, #afb1b8)" d="M34.069 23.191h-0.006l-0.516-1.443h-0.328v2.396h0.341v-1.441h0.007l0.522 1.441h0.321v-2.396h-0.341v1.443z"></path>
<path fill="#afb1b8" style="fill: var(--color1, #afb1b8)" d="M36.156 21.747l-0.275 0.953h-0.007l-0.274-0.953h-0.362l0.469 1.383v1.013h0.342v-1.013l0.469-1.383h-0.361z"></path>
<path fill="#afb1b8" style="fill: var(--color1, #afb1b8)" d="M22.609 24.82h0.165v0.462h0.112v-0.462h0.164v-0.095h-0.44v0.095z"></path>
<path fill="#afb1b8" style="fill: var(--color1, #afb1b8)" d="M23.992 24.725l-0.216 0.556h0.119l0.046-0.127h0.222l0.047 0.127h0.121l-0.221-0.556h-0.119zM23.974 25.062l0.076-0.206 0.076 0.206h-0.151z"></path>
<path fill="#afb1b8" style="fill: var(--color1, #afb1b8)" d="M25.359 25.077h0.128v0.072c-0.038 0.030-0.084 0.047-0.132 0.047-0.022 0.001-0.045-0.003-0.065-0.012s-0.039-0.023-0.053-0.041c-0.029-0.042-0.044-0.093-0.041-0.145 0-0.124 0.054-0.186 0.16-0.186 0.028-0.003 0.056 0.005 0.079 0.021s0.040 0.040 0.047 0.068l0.11-0.021c-0.024-0.109-0.102-0.164-0.236-0.164-0.072-0.002-0.141 0.024-0.194 0.072-0.028 0.028-0.050 0.061-0.064 0.098s-0.019 0.077-0.017 0.116c-0.003 0.076 0.022 0.151 0.071 0.209 0.027 0.028 0.060 0.050 0.097 0.064s0.076 0.020 0.114 0.017c0.087 0.002 0.172-0.029 0.236-0.088v-0.219h-0.241v0.094z"></path>
<path fill="#afb1b8" style="fill: var(--color1, #afb1b8)" d="M26.756 24.725h-0.113v0.556h0.39v-0.095h-0.277v-0.462z"></path>
<path fill="#afb1b8" style="fill: var(--color1, #afb1b8)" d="M27.937 24.725h-0.113v0.556h0.113v-0.556z"></path>
<path fill="#afb1b8" style="fill: var(--color1, #afb1b8)" d="M29.091 25.097l-0.228-0.371h-0.109v0.556h0.105v-0.364l0.224 0.364h0.112v-0.556h-0.103v0.371z"></path>
<path fill="#afb1b8" style="fill: var(--color1, #afb1b8)" d="M30.135 25.037h0.277v-0.095h-0.277v-0.122h0.298v-0.095h-0.411v0.556h0.422v-0.095h-0.31v-0.15z"></path>
<path fill="#afb1b8" style="fill: var(--color1, #afb1b8)" d="M32.665 24.945h-0.219v-0.219h-0.112v0.556h0.112v-0.243h0.219v0.243h0.112v-0.556h-0.112v0.219z"></path>
<path fill="#afb1b8" style="fill: var(--color1, #afb1b8)" d="M33.715 25.037h0.278v-0.095h-0.278v-0.122h0.299v-0.095h-0.411v0.556h0.421v-0.095h-0.31v-0.15z"></path>
<path fill="#afb1b8" style="fill: var(--color1, #afb1b8)" d="M35.138 25.037c0.097-0.015 0.146-0.066 0.146-0.155 0.003-0.024-0.001-0.048-0.010-0.069s-0.025-0.041-0.044-0.054c-0.050-0.025-0.106-0.037-0.163-0.033h-0.236v0.556h0.112v-0.233h0.022c0.024-0.001 0.048 0.003 0.070 0.012 0.016 0.010 0.030 0.024 0.040 0.041l0.121 0.177h0.134l-0.068-0.109c-0.030-0.054-0.072-0.099-0.123-0.134v0zM35.026 24.96h-0.082v-0.14h0.088c0.038-0.003 0.077 0.001 0.113 0.013 0.008 0.007 0.015 0.016 0.019 0.026s0.006 0.021 0.006 0.032c-0 0.011-0.003 0.021-0.008 0.031s-0.013 0.018-0.021 0.024c-0.037 0.011-0.075 0.016-0.114 0.013v0z"></path>
<path fill="#afb1b8" style="fill: var(--color1, #afb1b8)" d="M36.212 25.037h0.277v-0.095h-0.277v-0.122h0.299v-0.095h-0.412v0.556h0.422v-0.095h-0.31v-0.15z"></path>
</symbol>
<symbol id="icon-client-3" viewBox="0 0 59 32">
<path fill="#afb1b8" style="fill: var(--color1, #afb1b8)" d="M23.794 22.644c0.006 0 0.011 0.001 0.016 0.003s0.010 0.005 0.013 0.008l0.076 0.073c-0.059 0.059-0.132 0.106-0.213 0.138-0.096 0.035-0.199 0.052-0.303 0.049-0.097 0.002-0.194-0.014-0.285-0.046-0.081-0.030-0.154-0.074-0.214-0.13-0.061-0.058-0.108-0.127-0.138-0.201-0.033-0.083-0.049-0.17-0.048-0.258-0.001-0.088 0.016-0.176 0.052-0.259 0.033-0.075 0.083-0.143 0.147-0.201 0.065-0.057 0.142-0.101 0.228-0.131 0.093-0.031 0.193-0.047 0.293-0.046 0.093-0.002 0.186 0.012 0.272 0.042 0.075 0.028 0.144 0.068 0.204 0.116l-0.064 0.077c-0.004 0.005-0.010 0.010-0.016 0.014-0.007 0.004-0.017 0.006-0.026 0.006s-0.019-0.003-0.027-0.008l-0.034-0.021-0.047-0.026c-0.020-0.010-0.042-0.018-0.064-0.026-0.028-0.009-0.057-0.016-0.086-0.021-0.037-0.006-0.075-0.009-0.113-0.008-0.072-0.001-0.144 0.011-0.21 0.035-0.062 0.022-0.119 0.055-0.165 0.097-0.047 0.045-0.084 0.098-0.107 0.155-0.027 0.066-0.040 0.135-0.039 0.204-0.001 0.071 0.012 0.141 0.039 0.208 0.023 0.057 0.059 0.109 0.105 0.154 0.043 0.042 0.097 0.075 0.157 0.096 0.062 0.022 0.128 0.034 0.195 0.033 0.039 0.001 0.077-0.002 0.116-0.007 0.063-0.007 0.122-0.026 0.175-0.055 0.027-0.015 0.052-0.032 0.075-0.051 0.010-0.008 0.023-0.013 0.036-0.013v0z"></path>
<path fill="#afb1b8" style="fill: var(--color1, #afb1b8)" d="M25.984 22.28c0.001 0.087-0.016 0.174-0.051 0.256-0.031 0.074-0.080 0.142-0.143 0.199s-0.14 0.101-0.224 0.131c-0.186 0.062-0.391 0.062-0.577 0-0.084-0.030-0.16-0.074-0.223-0.131-0.063-0.058-0.112-0.126-0.144-0.201-0.068-0.166-0.068-0.347 0-0.513 0.032-0.075 0.081-0.143 0.144-0.202 0.064-0.055 0.139-0.098 0.223-0.126 0.185-0.063 0.391-0.063 0.577 0 0.084 0.030 0.16 0.074 0.224 0.131s0.111 0.125 0.143 0.199c0.035 0.082 0.053 0.17 0.051 0.258zM25.785 22.28c0.002-0.070-0.011-0.14-0.036-0.206-0.021-0.057-0.056-0.109-0.101-0.154-0.044-0.042-0.099-0.076-0.16-0.097-0.135-0.045-0.284-0.045-0.419 0-0.061 0.022-0.116 0.055-0.16 0.097-0.046 0.044-0.081 0.097-0.102 0.154-0.048 0.134-0.048 0.278 0 0.412 0.021 0.057 0.056 0.11 0.102 0.154 0.045 0.042 0.099 0.075 0.16 0.096 0.135 0.044 0.284 0.044 0.419 0 0.061-0.021 0.116-0.054 0.16-0.096 0.045-0.045 0.080-0.097 0.101-0.154 0.025-0.066 0.038-0.136 0.036-0.206v0z"></path>
<path fill="#afb1b8" style="fill: var(--color1, #afb1b8)" d="M27.479 22.496l0.020 0.046c0.008-0.017 0.014-0.031 0.022-0.046s0.015-0.031 0.025-0.045l0.485-0.765c0.009-0.013 0.018-0.021 0.027-0.024 0.013-0.003 0.026-0.005 0.040-0.004h0.143v1.245h-0.17v-0.915c0-0.012 0-0.025 0-0.039s-0.001-0.029 0-0.043l-0.487 0.776c-0.006 0.012-0.016 0.021-0.029 0.028s-0.027 0.010-0.042 0.010h-0.027c-0.015 0-0.029-0.003-0.042-0.010s-0.022-0.017-0.028-0.028l-0.502-0.781c0 0.015 0 0.030 0 0.044s0 0.028 0 0.040v0.915h-0.164v-1.242h0.143c0.013-0.001 0.027 0.001 0.040 0.004 0.012 0.005 0.021 0.014 0.027 0.024l0.495 0.766c0.010 0.014 0.018 0.029 0.025 0.044v0z"></path>
<path fill="#afb1b8" style="fill: var(--color1, #afb1b8)" d="M29.302 22.434v0.466h-0.19v-1.243h0.423c0.080-0.001 0.159 0.008 0.236 0.027 0.061 0.015 0.118 0.042 0.167 0.077 0.042 0.034 0.075 0.075 0.095 0.122 0.022 0.051 0.033 0.105 0.032 0.159 0.001 0.055-0.011 0.109-0.035 0.159-0.023 0.048-0.058 0.090-0.102 0.124-0.049 0.037-0.106 0.066-0.168 0.082-0.074 0.021-0.151 0.030-0.229 0.029l-0.23-0.003zM29.302 22.3h0.23c0.050 0.001 0.099-0.006 0.147-0.019 0.039-0.011 0.075-0.030 0.106-0.054 0.029-0.023 0.051-0.051 0.064-0.082 0.015-0.033 0.023-0.069 0.023-0.105 0.002-0.035-0.004-0.069-0.019-0.101s-0.037-0.061-0.066-0.085c-0.072-0.049-0.163-0.073-0.255-0.067h-0.23v0.512z"></path>
<path fill="#afb1b8" style="fill: var(--color1, #afb1b8)" d="M31.852 22.902h-0.15c-0.015 0-0.030-0.004-0.042-0.012-0.011-0.008-0.019-0.018-0.025-0.029l-0.129-0.301h-0.648l-0.134 0.301c-0.005 0.011-0.013 0.021-0.024 0.028-0.012 0.008-0.027 0.013-0.043 0.012h-0.15l0.569-1.245h0.197l0.577 1.245zM30.913 22.439h0.535l-0.226-0.507c-0.017-0.038-0.032-0.077-0.043-0.117l-0.022 0.065c-0.007 0.020-0.014 0.038-0.021 0.053l-0.224 0.506z"></path>
<path fill="#afb1b8" style="fill: var(--color1, #afb1b8)" d="M32.671 21.662c0.011 0.005 0.021 0.013 0.028 0.022l0.83 0.939c0-0.015 0-0.030 0-0.044s0-0.028 0-0.041v-0.882h0.17v1.245h-0.095c-0.013 0-0.027-0.002-0.039-0.007s-0.022-0.014-0.030-0.023l-0.829-0.938c0.001 0.014 0.001 0.029 0 0.043s0 0.026 0 0.038v0.887h-0.17v-1.245h0.101c0.012-0 0.023 0.002 0.034 0.006v0z"></path>
<path fill="#afb1b8" style="fill: var(--color1, #afb1b8)" d="M35.097 22.407v0.494h-0.19v-0.494l-0.525-0.75h0.17c0.015-0.001 0.029 0.003 0.041 0.011 0.010 0.008 0.019 0.017 0.026 0.028l0.328 0.484c0.013 0.021 0.025 0.040 0.034 0.058s0.017 0.035 0.024 0.053l0.025-0.054c0.009-0.020 0.020-0.039 0.032-0.057l0.323-0.487c0.007-0.010 0.015-0.019 0.025-0.026 0.011-0.009 0.026-0.013 0.041-0.012h0.172l-0.526 0.753z"></path>
<path fill="#afb1b8" style="fill: var(--color1, #afb1b8)" d="M27.385 19.567c0.082 0.009 0.166 0.017 0.25 0.023 1.28-0.497 2.362-1.311 3.112-2.34s1.134-2.227 1.105-3.445l-1.41-1.225c0.287 1.296 0.153 2.637-0.387 3.871s-1.465 2.313-2.67 3.117v0z"></path>
<path fill="#afb1b8" style="fill: var(--color1, #afb1b8)" d="M26.881 19.51l0.038 0.007c1.288-0.801 2.271-1.919 2.82-3.209s0.64-2.695 0.261-4.031l-2.009-1.745c0.812 1.434 1.139 3.040 0.943 4.629s-0.908 3.098-2.053 4.35v0z"></path>
<path fill="#afb1b8" style="fill: var(--color1, #afb1b8)" d="M33.693 15.244c-0.341 1.338-1.17 2.545-2.363 3.441-0.349 0.263-0.724 0.498-1.123 0.7 0.972-0.248 1.865-0.687 2.61-1.282s1.324-1.332 1.69-2.152l-0.815-0.707z"></path>
<path fill="#afb1b8" style="fill: var(--color1, #afb1b8)" d="M33.374 15.047l-1.16-1.008c-0.022 1.149-0.398 2.272-1.089 3.252s-1.671 1.781-2.838 2.321h0.006c0.26-0 0.52-0.014 0.779-0.040 1.091-0.387 2.055-1.003 2.806-1.792s1.265-1.728 1.497-2.732v0z"></path>
<path fill="#afb1b8" style="fill: var(--color1, #afb1b8)" d="M27.049 9.795l-1.384-1.204c-1.237 0.415-2.301 1.145-3.052 2.095s-1.156 2.074-1.159 3.226v0c0.005 1.273 0.498 2.508 1.401 3.511s2.166 1.714 3.588 2.022c1.269-1.343 2.012-3.003 2.121-4.739s-0.422-3.456-1.515-4.911v0z"></path>
<path fill="#afb1b8" style="fill: var(--color1, #afb1b8)" d="M36.57 14.862c-0.005-1.51-0.698-2.958-1.927-4.026s-2.895-1.67-4.634-1.674v0c-0.803-0.001-1.6 0.128-2.349 0.38l8.471 7.36c0.29-0.651 0.439-1.342 0.438-2.040v0z"></path>
</symbol>
<symbol id="icon-client-4" viewBox="0 0 59 32">
<path fill="#2196f3" style="fill: var(--color2, #2196f3)" d="M19.529 12.905h-0.001c-0.834 0-1.51 0.601-1.51 1.342v0.001c0 0.741 0.676 1.342 1.51 1.342h0.001c0.834 0 1.51-0.601 1.51-1.342v-0.001c0-0.741-0.676-1.342-1.51-1.342z"></path>
<path fill="#2196f3" style="fill: var(--color2, #2196f3)" d="M30.677 12.476c-0.002-1.030-0.464-2.016-1.283-2.744s-1.929-1.138-3.088-1.141v0c-1.159 0.002-2.27 0.412-3.089 1.14s-1.281 1.715-1.283 2.745v0 5.678c0 0 8.742-0.865 8.743-5.677v-0.001z"></path>
<path fill="#2196f3" style="fill: var(--color2, #2196f3)" d="M14.957 20.017c0.002 0.716 0.323 1.403 0.893 1.91s1.342 0.792 2.148 0.794v0c0.806-0.002 1.578-0.288 2.148-0.794s0.891-1.193 0.893-1.909v0-3.951c0 0-6.083 0.603-6.083 3.95zM17.998 20.725c-0.158 0-0.311-0.041-0.442-0.119s-0.233-0.188-0.293-0.318c-0.060-0.129-0.076-0.272-0.045-0.409s0.107-0.263 0.218-0.362c0.111-0.099 0.253-0.166 0.408-0.194s0.315-0.013 0.46 0.040c0.146 0.054 0.27 0.144 0.357 0.261s0.134 0.253 0.134 0.393c0 0.093-0.020 0.186-0.060 0.272s-0.098 0.165-0.172 0.23c-0.074 0.066-0.162 0.118-0.259 0.154s-0.201 0.054-0.305 0.054v-0.003z"></path>
<path fill="#2196f3" style="fill: var(--color2, #2196f3)" d="M24.145 20.335h-0.587v0.606h-0.306v-1.484h0.966v0.248h-0.66v0.383h0.587v0.247zM25.615 20.233c0 0.146-0.026 0.274-0.077 0.384s-0.126 0.195-0.222 0.255c-0.096 0.060-0.206 0.090-0.33 0.090-0.123 0-0.233-0.030-0.329-0.089s-0.171-0.143-0.224-0.253c-0.053-0.11-0.080-0.236-0.081-0.379v-0.073c0-0.146 0.026-0.274 0.078-0.385s0.127-0.197 0.223-0.256c0.096-0.060 0.207-0.090 0.33-0.090s0.233 0.030 0.329 0.090c0.096 0.059 0.171 0.144 0.223 0.256s0.079 0.239 0.079 0.384v0.066zM25.305 20.166c0-0.156-0.028-0.274-0.084-0.355s-0.135-0.121-0.238-0.121c-0.103 0-0.182 0.040-0.237 0.12s-0.084 0.196-0.085 0.351v0.072c0 0.151 0.028 0.269 0.084 0.353s0.136 0.125 0.241 0.125c0.103 0 0.181-0.040 0.236-0.12s0.083-0.198 0.084-0.353v-0.072zM26.606 20.552c0-0.058-0.020-0.102-0.061-0.133s-0.114-0.064-0.22-0.098c-0.106-0.035-0.19-0.069-0.252-0.102-0.168-0.091-0.253-0.214-0.253-0.368 0-0.080 0.022-0.151 0.067-0.214s0.11-0.112 0.195-0.148c0.085-0.035 0.18-0.053 0.285-0.053s0.2 0.019 0.283 0.058c0.083 0.038 0.147 0.092 0.193 0.162s0.069 0.149 0.069 0.238h-0.306c0-0.068-0.021-0.121-0.064-0.158s-0.103-0.057-0.18-0.057c-0.075 0-0.133 0.016-0.174 0.048s-0.062 0.073-0.062 0.124c0 0.048 0.024 0.089 0.072 0.121s0.121 0.063 0.215 0.092c0.174 0.052 0.301 0.117 0.38 0.195s0.119 0.174 0.119 0.289c0 0.128-0.049 0.229-0.146 0.303s-0.228 0.109-0.392 0.109c-0.114 0-0.218-0.021-0.312-0.062s-0.165-0.099-0.215-0.172c-0.049-0.073-0.073-0.157-0.073-0.253h0.307c0 0.164 0.098 0.246 0.293 0.246 0.073 0 0.129-0.015 0.17-0.044s0.061-0.071 0.061-0.124zM28.238 19.705h-0.454v1.236h-0.306v-1.236h-0.448v-0.248h1.209v0.248zM29.306 20.299h-0.587v0.397h0.689v0.246h-0.995v-1.484h0.993v0.248h-0.687v0.354h0.587v0.239zM30.136 20.398h-0.244v0.543h-0.306v-1.484h0.551c0.175 0 0.31 0.039 0.406 0.117s0.143 0.189 0.143 0.331c0 0.101-0.022 0.186-0.066 0.254s-0.11 0.121-0.199 0.161l0.321 0.606v0.014h-0.328l-0.278-0.543zM29.893 20.151h0.247c0.077 0 0.136-0.019 0.178-0.058s0.063-0.093 0.063-0.162c0-0.070-0.020-0.125-0.060-0.165s-0.1-0.060-0.182-0.060h-0.246v0.445zM31.745 20.419v0.523h-0.306v-1.484h0.579c0.111 0 0.209 0.020 0.294 0.061s0.15 0.099 0.196 0.174c0.045 0.075 0.068 0.16 0.068 0.256 0 0.145-0.050 0.26-0.15 0.344s-0.237 0.125-0.413 0.125h-0.268zM31.745 20.171h0.273c0.081 0 0.142-0.019 0.184-0.057s0.064-0.092 0.064-0.163c0-0.073-0.021-0.131-0.064-0.176s-0.102-0.068-0.177-0.069h-0.28v0.466zM33.679 20.299h-0.587v0.397h0.689v0.246h-0.995v-1.484h0.993v0.248h-0.687v0.354h0.587v0.239zM35.098 19.705h-0.455v1.236h-0.306v-1.236h-0.448v-0.248h1.209v0.248zM36.166 20.299h-0.587v0.397h0.689v0.246h-0.994v-1.484h0.992v0.248h-0.687v0.354h0.587v0.239zM36.996 20.398h-0.243v0.543h-0.306v-1.484h0.551c0.175 0 0.31 0.039 0.406 0.117s0.143 0.189 0.143 0.331c0 0.101-0.022 0.186-0.066 0.254s-0.11 0.121-0.199 0.161l0.321 0.606v0.014h-0.328l-0.278-0.543zM36.753 20.151h0.247c0.077 0 0.136-0.019 0.178-0.058s0.063-0.093 0.063-0.162c0-0.070-0.020-0.125-0.060-0.165s-0.1-0.060-0.182-0.060h-0.246v0.445zM38.549 20.552c0-0.058-0.021-0.102-0.061-0.133s-0.114-0.064-0.22-0.098c-0.106-0.035-0.19-0.069-0.251-0.102-0.169-0.091-0.253-0.214-0.253-0.368 0-0.080 0.022-0.151 0.067-0.214s0.111-0.112 0.195-0.148c0.085-0.035 0.18-0.053 0.285-0.053 0.106 0 0.2 0.019 0.283 0.058s0.147 0.092 0.192 0.162c0.046 0.070 0.070 0.149 0.070 0.238h-0.306c0-0.068-0.022-0.121-0.064-0.158s-0.103-0.057-0.18-0.057c-0.075 0-0.133 0.016-0.174 0.048s-0.062 0.073-0.062 0.124c0 0.048 0.024 0.089 0.072 0.121s0.121 0.063 0.215 0.092c0.174 0.052 0.301 0.117 0.38 0.195s0.119 0.174 0.119 0.289c0 0.128-0.049 0.229-0.146 0.303s-0.228 0.109-0.392 0.109c-0.114 0-0.218-0.021-0.312-0.062s-0.165-0.099-0.215-0.172c-0.049-0.073-0.073-0.157-0.073-0.253h0.307c0 0.164 0.098 0.246 0.294 0.246 0.073 0 0.129-0.015 0.17-0.044s0.061-0.071 0.061-0.124z"></path>
</symbol>
<symbol id="icon-client-5" viewBox="0 0 59 32">
<path fill="#afb1b8" style="fill: var(--color1, #afb1b8)" d="M20.437 21.125c0.085 0.096 0.13 0.216 0.128 0.34 0.004 0.081-0.011 0.161-0.045 0.235s-0.086 0.141-0.152 0.194c-0.165 0.114-0.369 0.169-0.575 0.157h-1.010v-2.154h0.989c0.195-0.012 0.389 0.039 0.548 0.143 0.064 0.049 0.114 0.111 0.148 0.181s0.048 0.146 0.044 0.222c0.006 0.119-0.035 0.236-0.115 0.329-0.077 0.086-0.183 0.145-0.301 0.168 0.134 0.022 0.255 0.088 0.341 0.184v0zM19.253 20.8h0.423c0.096 0.006 0.192-0.019 0.269-0.072 0.032-0.026 0.056-0.059 0.072-0.096s0.022-0.076 0.019-0.115c0.003-0.039-0.003-0.078-0.019-0.114s-0.040-0.069-0.071-0.096c-0.080-0.054-0.178-0.080-0.277-0.073h-0.416v0.565zM19.986 21.626c0.034-0.027 0.061-0.061 0.078-0.099s0.025-0.079 0.022-0.12c0.003-0.042-0.005-0.083-0.023-0.121s-0.045-0.072-0.079-0.1c-0.083-0.056-0.184-0.084-0.287-0.078h-0.444v0.592h0.449c0.101 0.005 0.201-0.021 0.284-0.075v0z"></path>
<path fill="#afb1b8" style="fill: var(--color1, #afb1b8)" d="M22.459 22.051l-0.55-0.842h-0.207v0.842h-0.473v-2.154h0.896c0.226-0.014 0.449 0.051 0.624 0.183 0.125 0.117 0.201 0.271 0.213 0.434s-0.040 0.325-0.146 0.457c-0.111 0.116-0.262 0.193-0.427 0.219l0.586 0.861h-0.515zM21.702 20.916h0.387c0.269 0 0.403-0.109 0.403-0.326 0.003-0.044-0.005-0.089-0.022-0.131s-0.043-0.080-0.077-0.111c-0.085-0.065-0.194-0.096-0.305-0.087h-0.392l0.005 0.655z"></path>
<path fill="#afb1b8" style="fill: var(--color1, #afb1b8)" d="M25.047 21.618h-0.943l-0.167 0.433h-0.496l0.866-2.129h0.537l0.863 2.129h-0.496l-0.163-0.433zM24.921 21.291l-0.345-0.909-0.345 0.909h0.689z"></path>
<path fill="#afb1b8" style="fill: var(--color1, #afb1b8)" d="M28.286 22.051h-0.47l-1.054-1.464v1.464h-0.469v-2.154h0.469l1.054 1.473v-1.473h0.47v2.154z"></path>
<path fill="#afb1b8" style="fill: var(--color1, #afb1b8)" d="M30.968 21.536c-0.097 0.163-0.245 0.295-0.425 0.38-0.205 0.095-0.432 0.141-0.661 0.136h-0.837v-2.154h0.837c0.229-0.005 0.455 0.040 0.661 0.133 0.18 0.083 0.328 0.214 0.425 0.376 0.097 0.175 0.147 0.369 0.147 0.565s-0.050 0.39-0.147 0.565v0zM30.43 21.484c0.134-0.143 0.208-0.325 0.208-0.514s-0.074-0.371-0.208-0.514c-0.162-0.13-0.374-0.195-0.588-0.183h-0.326v1.394h0.326c0.215 0.012 0.426-0.053 0.588-0.183z"></path>
<path fill="#afb1b8" style="fill: var(--color1, #afb1b8)" d="M25.341 7.919c0 0 6.066 2.097 5.937 5.131v5.132c0 0-6.061-2.098-5.935-5.132l-0.002-5.131z"></path>
<path fill="#afb1b8" style="fill: var(--color1, #afb1b8)" d="M36.682 16.98c1.146-0.722 2.471-1.169 3.854-1.3v-1.607c-1.594 0.562-2.946 1.582-3.854 2.907v0z"></path>
<path fill="#afb1b8" style="fill: var(--color1, #afb1b8)" d="M35.994 17.464c0.937-1.729 2.563-3.063 4.542-3.727v-4.629c0 0-8.638 2.987-8.456 7.308v7.307c0 0 0.385-0.134 0.99-0.384 0-0.234 0-0.469 0.028-0.706 0.179-2.006 1.22-3.865 2.896-5.168v0z"></path>
<path fill="#afb1b8" style="fill: var(--color1, #afb1b8)" d="M35.172 20.178c0.045-0.507 0.146-1.008 0.302-1.496-1.043 1.125-1.675 2.522-1.806 3.993-0.013 0.139-0.020 0.278-0.023 0.421 0.491-0.216 1.062-0.485 1.661-0.802-0.153-0.696-0.198-1.408-0.134-2.116v0z"></path>
<path fill="#afb1b8" style="fill: var(--color1, #afb1b8)" d="M35.515 20.205c-0.057 0.64-0.022 1.284 0.107 1.916 2.36-1.293 5.012-3.291 4.91-5.705v-0.21c-1.686 0.173-3.264 0.848-4.49 1.921-0.287 0.665-0.464 1.366-0.526 2.079v0z"></path>
</symbol>
<symbol id="icon-client-6" viewBox="0 0 59 32">
<path fill="#afb1b8" style="fill: var(--color1, #afb1b8)" d="M29.713 15.098c-0.154-0.205-0.228-0.448-0.21-0.692v-1.003c0-0.307 0.070-0.541 0.209-0.701s0.379-0.239 0.718-0.239c0.319 0 0.546 0.068 0.679 0.204 0.146 0.174 0.217 0.386 0.201 0.6v0.236h-0.571v-0.239c0.002-0.078-0.003-0.156-0.017-0.234-0.008-0.053-0.037-0.102-0.082-0.139-0.059-0.040-0.132-0.059-0.207-0.054-0.078-0.005-0.156 0.015-0.217 0.057-0.050 0.041-0.083 0.095-0.095 0.153-0.016 0.082-0.024 0.165-0.022 0.248v1.217c-0.009 0.117 0.016 0.235 0.073 0.342 0.028 0.036 0.068 0.065 0.114 0.083s0.097 0.025 0.147 0.019c0.073 0.005 0.146-0.015 0.202-0.055 0.047-0.040 0.076-0.092 0.085-0.148 0.013-0.081 0.019-0.162 0.018-0.244v-0.247h0.571v0.225c0.016 0.223-0.053 0.445-0.197 0.63-0.131 0.149-0.355 0.223-0.683 0.223s-0.577-0.080-0.717-0.245z"></path>
<path fill="#afb1b8" style="fill: var(--color1, #afb1b8)" d="M32.089 15.109c-0.144-0.156-0.216-0.384-0.216-0.685v-1.055c0-0.298 0.072-0.523 0.216-0.676s0.385-0.229 0.723-0.229c0.336 0 0.575 0.076 0.72 0.229s0.217 0.379 0.217 0.676v1.055c0 0.298-0.073 0.526-0.22 0.684s-0.385 0.236-0.717 0.236c-0.332 0-0.578-0.080-0.723-0.235zM33.078 14.856c0.052-0.098 0.075-0.205 0.069-0.312v-1.292c0.007-0.105-0.017-0.21-0.067-0.306-0.029-0.037-0.069-0.066-0.117-0.084s-0.099-0.024-0.151-0.018c-0.051-0.006-0.103 0-0.151 0.018s-0.088 0.047-0.117 0.084c-0.052 0.095-0.075 0.201-0.069 0.306v1.298c-0.007 0.107 0.016 0.215 0.069 0.312 0.033 0.033 0.074 0.059 0.12 0.077s0.096 0.027 0.147 0.027c0.051 0 0.101-0.009 0.147-0.027s0.087-0.044 0.12-0.077v-0.006z"></path>
<path fill="#afb1b8" style="fill: var(--color1, #afb1b8)" d="M34.436 12.495h0.614l0.462 1.946 0.473-1.946h0.598l0.061 2.809h-0.442l-0.047-1.952-0.456 1.952h-0.354l-0.473-1.96-0.044 1.96h-0.447l0.056-2.809z"></path>
<path fill="#afb1b8" style="fill: var(--color1, #afb1b8)" d="M37.332 12.495h0.957c0.551 0 0.827 0.266 0.827 0.798 0 0.509-0.29 0.764-0.871 0.763h-0.326v1.249h-0.591l0.003-2.809zM38.15 13.696c0.058 0.006 0.118 0.002 0.174-0.014s0.107-0.041 0.151-0.075c0.068-0.095 0.098-0.206 0.085-0.317 0.003-0.086-0.007-0.171-0.029-0.255-0.008-0.028-0.023-0.054-0.043-0.077s-0.046-0.042-0.074-0.057c-0.082-0.034-0.173-0.049-0.264-0.045h-0.229v0.839h0.229z"></path>
<path fill="#afb1b8" style="fill: var(--color1, #afb1b8)" d="M39.968 12.495h0.635l0.651 2.809h-0.551l-0.129-0.648h-0.566l-0.133 0.648h-0.559l0.651-2.809zM40.511 14.331l-0.221-1.179-0.221 1.179h0.442z"></path>
<path fill="#afb1b8" style="fill: var(--color1, #afb1b8)" d="M41.78 12.495h0.414l0.792 1.603v-1.603h0.49v2.809h-0.393l-0.797-1.673v1.673h-0.507l0.001-2.809z"></path>
<path fill="#afb1b8" style="fill: var(--color1, #afb1b8)" d="M44.624 14.233l-0.658-1.734h0.554l0.402 1.114 0.377-1.114h0.543l-0.65 1.734v1.071h-0.567v-1.071z"></path>
<path fill="#afb1b8" style="fill: var(--color1, #afb1b8)" d="M30.625 16.533v0.147h-0.482v1.142h-0.202v-1.142h-0.484v-0.147h1.169z"></path>
<path fill="#afb1b8" style="fill: var(--color1, #afb1b8)" d="M32.137 17.821h-0.156c-0.016 0.001-0.031-0.003-0.044-0.012-0.012-0.007-0.021-0.018-0.026-0.030l-0.139-0.306h-0.669l-0.139 0.306c-0.004 0.013-0.011 0.025-0.021 0.035-0.012 0.009-0.028 0.013-0.044 0.012h-0.156l0.591-1.288h0.206l0.598 1.283zM31.158 17.343h0.558l-0.236-0.524c-0.017-0.040-0.032-0.080-0.044-0.121-0.008 0.024-0.015 0.048-0.022 0.068l-0.021 0.054-0.234 0.523z"></path>
<path fill="#afb1b8" style="fill: var(--color1, #afb1b8)" d="M33.155 17.695c0.037 0.002 0.074 0.002 0.111 0 0.032-0.003 0.064-0.008 0.095-0.015 0.029-0.006 0.057-0.014 0.085-0.023 0.026-0.009 0.052-0.020 0.079-0.032v-0.29h-0.236c-0.006 0-0.012-0-0.017-0.002s-0.011-0.004-0.015-0.008c-0.004-0.003-0.007-0.006-0.009-0.011s-0.003-0.008-0.003-0.013v-0.099h0.458v0.494c-0.037 0.023-0.077 0.044-0.118 0.061s-0.086 0.033-0.131 0.044c-0.048 0.012-0.098 0.021-0.148 0.027-0.057 0.006-0.115 0.008-0.172 0.008-0.102 0.001-0.203-0.015-0.298-0.048-0.088-0.031-0.169-0.077-0.236-0.135-0.066-0.059-0.118-0.128-0.152-0.204-0.037-0.085-0.056-0.176-0.054-0.267-0.001-0.092 0.017-0.183 0.053-0.269 0.034-0.076 0.086-0.146 0.152-0.204s0.148-0.103 0.236-0.134c0.101-0.033 0.209-0.049 0.317-0.048 0.055-0 0.11 0.004 0.164 0.011 0.048 0.007 0.095 0.018 0.141 0.033 0.041 0.013 0.081 0.030 0.118 0.051s0.071 0.043 0.103 0.067l-0.057 0.080c-0.004 0.007-0.011 0.013-0.019 0.018s-0.017 0.007-0.027 0.007c-0.013-0-0.026-0.004-0.037-0.010-0.018-0.008-0.037-0.018-0.058-0.031-0.025-0.014-0.052-0.025-0.079-0.035-0.035-0.012-0.072-0.022-0.109-0.029-0.050-0.008-0.1-0.012-0.15-0.011-0.078-0.001-0.155 0.011-0.228 0.036-0.066 0.023-0.125 0.058-0.174 0.102-0.049 0.046-0.086 0.101-0.11 0.16-0.053 0.14-0.053 0.29 0 0.43 0.026 0.061 0.066 0.116 0.118 0.162 0.048 0.044 0.107 0.079 0.173 0.102 0.075 0.022 0.155 0.031 0.234 0.026v0z"></path>
<path fill="#afb1b8" style="fill: var(--color1, #afb1b8)" d="M35.039 17.674h0.645v0.147h-0.842v-1.288h0.202l-0.005 1.142z"></path>
<path fill="#afb1b8" style="fill: var(--color1, #afb1b8)" d="M36.355 17.821h-0.202v-1.288h0.202v1.288z"></path>
<path fill="#afb1b8" style="fill: var(--color1, #afb1b8)" d="M37.106 16.539c0.012 0.006 0.023 0.014 0.031 0.023l0.864 0.971c-0.001-0.015-0.001-0.031 0-0.046 0-0.014 0-0.029 0-0.042v-0.918h0.176v1.294h-0.102c-0.015 0.001-0.030-0.001-0.044-0.007-0.012-0.006-0.023-0.015-0.032-0.024l-0.863-0.97c0 0.015 0 0.030 0 0.044s0 0.028 0 0.040v0.918h-0.169v-1.289h0.105c0.011 0 0.023 0.002 0.033 0.006v0z"></path>
<path fill="#afb1b8" style="fill: var(--color1, #afb1b8)" d="M39.665 16.533v0.142h-0.716v0.425h0.58v0.137h-0.58v0.44h0.716v0.142h-0.924v-1.285h0.924z"></path>
<path fill="#afb1b8" style="fill: var(--color1, #afb1b8)" d="M18.491 8.576l8.972 2.199v7.707l-8.972-2.198v-7.708zM17.916 7.919v8.739l10.122 2.482v-8.738l-10.122-2.483z"></path>
<path fill="#afb1b8" style="fill: var(--color1, #afb1b8)" d="M23.34 23.197l-10.123-2.484v-8.739l10.123 2.483v8.74z"></path>
<path fill="#afb1b8" style="fill: var(--color1, #afb1b8)" d="M18.083 8.477l8.855 2.172-3.766 3.252-8.856-2.173 3.767-3.251zM17.916 7.919l-4.698 4.056 10.123 2.483 4.697-4.056-10.122-2.483z"></path>
<path fill="#afb1b8" style="fill: var(--color1, #afb1b8)" d="M23.91 22.706l4.127-3.564-4.127-1.013v4.577z"></path>
</symbol>
<symbol id="icon-smartphone" viewBox="0 0 20 32">
<path fill="#757575" style="fill: var(--color3, #757575)" d="M17 0h-14c-1.654 0-3 1.346-3 3v26c0 1.654 1.346 3 3 3h14c1.654 0 3-1.346 3-3v-26c0-1.654-1.346-3-3-3zM3 2h14c0.552 0 1 0.448 1 1v21h-16v-21c0-0.552 0.448-1 1-1zM17 30h-14c-0.552 0-1-0.448-1-1v-3h16v3c0 0.552-0.448 1-1 1z"></path>
<path fill="#757575" style="fill: var(--color3, #757575)" d="M4.707 27.478c0.391 0.365 0.391 0.956 0 1.321s-1.024 0.365-1.414 0c-0.391-0.365-0.391-0.956 0-1.321s1.024-0.365 1.414 0z"></path>
</symbol>
<symbol id="icon-envelope" viewBox="0 0 43 32">
<path fill="#2196f3" style="fill: var(--color2, #2196f3)" d="M38.667 0h-34.667c-2.206 0-4 1.794-4 4v24c0 2.206 1.794 4 4 4h34.667c2.206 0 4-1.794 4-4v-24c0-2.206-1.794-4-4-4zM38.667 2.667c0.181 0 0.353 0.038 0.511 0.103l-17.844 15.466-17.844-15.466c0.158-0.066 0.33-0.103 0.511-0.103h34.667zM38.667 29.333h-34.667c-0.736 0-1.333-0.598-1.333-1.333v-22.413l17.793 15.421c0.251 0.217 0.563 0.326 0.874 0.326s0.622-0.108 0.874-0.326l17.793-15.421v22.413c0 0.736-0.598 1.333-1.333 1.333z"></path>
</symbol>
<symbol id="icon-antenna-1" viewBox="0 0 20 20">
<path fill="#212121" style="fill: var(--color4, #212121)" d="M19.233 13.811l-5.277-5.316 0.586-2.885c0.151 0.059 0.312 0.090 0.474 0.091h0.004c0.745 0.009 1.356-0.588 1.365-1.333s-0.588-1.356-1.333-1.365c-0.745-0.009-1.356 0.588-1.365 1.333-0.002 0.159 0.024 0.318 0.078 0.468l-3.1 0.378-5.057-5.083c-0.062-0.063-0.147-0.099-0.235-0.1-0.088 0-0.171 0.035-0.233 0.097l-0.945 0.94c-0.13 0.13-0.13 0.341 0 0.471l0.509 0.516c-1.971 3.624-1.331 8.111 1.575 11.039 0.027 0.026 0.058 0.046 0.091 0.061-0.021 0.113-0.032 0.227-0.033 0.342v3.867h-4c-0.92 0.001-1.666 0.747-1.667 1.667v0.667c0 0.184 0.149 0.333 0.333 0.333h15.333c0.184 0 0.333-0.149 0.333-0.333v-0.667c-0.001-0.92-0.747-1.666-1.667-1.667h-4v-1.714c0.627 0.131 1.265 0.198 1.905 0.2 1.536-0.002 3.048-0.385 4.4-1.115l0.511 0.514c0.062 0.063 0.147 0.099 0.235 0.1 0.087-0 0.171-0.035 0.233-0.097l0.945-0.94c0.13-0.13 0.13-0.341 0-0.471zM14.55 3.896c0.261-0.26 0.683-0.258 0.943 0.003s0.258 0.683-0.003 0.943c-0.125 0.124-0.294 0.194-0.47 0.194h-0.002c-0.368-0.002-0.665-0.302-0.663-0.67 0.001-0.176 0.072-0.345 0.197-0.469h-0.001zM13.765 6.086l-0.374 1.841-0.735-0.739 1.109-1.102zM13.387 5.522l-1.2 1.193-0.928-0.933 2.128-0.26zM15.003 18c0.552 0 1 0.448 1 1v0.333h-14.667v-0.333c0-0.552 0.448-1 1-1h12.667zM10.336 16.667v0.667h-3.333v-0.667h3.333zM7.003 16v-2.533c0-0.809 0.748-1.467 1.667-1.467s1.667 0.658 1.667 1.467v2.533h-3.333zM11.003 14.94v-1.473c0-1.176-1.047-2.133-2.333-2.133-0.832-0.013-1.61 0.411-2.051 1.116-2.536-2.671-3.107-6.653-1.424-9.929l11.626 11.693c-1.795 0.913-3.853 1.17-5.818 0.727zM18.058 14.513l-13.161-13.238 0.472-0.47 4.959 4.987c0.002 0 0.004 0.004 0.006 0.006l8.197 8.245-0.473 0.47z"></path>
<path fill="#2196f3" style="fill: var(--color2, #2196f3)" d="M8.672 12.667h-0.003c-0.552-0.001-1.001 0.446-1.002 0.999s0.446 1.001 0.999 1.001h0.003c0.552 0.001 1.001-0.446 1.001-0.998s-0.446-1.001-0.998-1.002zM8.906 13.903c-0.063 0.062-0.148 0.097-0.236 0.097-0.184-0.001-0.333-0.151-0.332-0.335 0-0.088 0.036-0.172 0.098-0.235s0.146-0.097 0.233-0.097c0.184 0.001 0.333 0.151 0.332 0.335-0 0.088-0.036 0.172-0.098 0.235h0.003z"></path>
</symbol>
<symbol id="icon-astronaut-1" viewBox="0 0 20 20">
<path fill="#2196f3" style="fill: var(--color2, #2196f3)" d="M19.984 2.828c-0.039-0.12-0.143-0.208-0.269-0.227l-1.194-0.174-0.534-1.082c-0.112-0.228-0.486-0.228-0.598 0l-0.534 1.082-1.194 0.174c-0.126 0.018-0.23 0.106-0.269 0.227s-0.007 0.253 0.084 0.342l0.864 0.842-0.204 1.189c-0.021 0.125 0.030 0.251 0.132 0.326 0.104 0.075 0.239 0.085 0.351 0.025l1.068-0.562 1.068 0.562c0.049 0.026 0.102 0.038 0.155 0.038 0.069 0 0.138-0.021 0.196-0.064 0.103-0.075 0.154-0.201 0.132-0.326l-0.204-1.189 0.864-0.842c0.091-0.089 0.123-0.221 0.084-0.342zM18.444 3.657c-0.078 0.076-0.114 0.187-0.096 0.295l0.119 0.696-0.625-0.329c-0.049-0.026-0.102-0.038-0.155-0.038s-0.106 0.013-0.155 0.038l-0.625 0.329 0.119-0.696c0.019-0.108-0.017-0.218-0.096-0.295l-0.506-0.493 0.699-0.102c0.109-0.016 0.202-0.084 0.251-0.182l0.313-0.633 0.313 0.633c0.049 0.098 0.142 0.167 0.251 0.182l0.699 0.102-0.506 0.493z"></path>
<path fill="#2196f3" style="fill: var(--color2, #2196f3)" d="M16.333 12.826h-0.667v0.667h0.667v-0.667z"></path>
<path fill="#2196f3" style="fill: var(--color2, #2196f3)" d="M16.333 14.16h-0.667v0.667h0.667v-0.667z"></path>
<path fill="#2196f3" style="fill: var(--color2, #2196f3)" d="M17 13.493h-0.667v0.667h0.667v-0.667z"></path>
<path fill="#2196f3" style="fill: var(--color2, #2196f3)" d="M15.667 13.493h-0.667v0.667h0.667v-0.667z"></path>
<path fill="#2196f3" style="fill: var(--color2, #2196f3)" d="M14 16.493h-0.667v0.667h0.667v-0.667z"></path>
<path fill="#2196f3" style="fill: var(--color2, #2196f3)" d="M14 17.826h-0.667v0.667h0.667v-0.667z"></path>
<path fill="#2196f3" style="fill: var(--color2, #2196f3)" d="M14.667 17.16h-0.667v0.667h0.667v-0.667z"></path>
<path fill="#2196f3" style="fill: var(--color2, #2196f3)" d="M13.333 17.16h-0.667v0.667h0.667v-0.667z"></path>
<path fill="#2196f3" style="fill: var(--color2, #2196f3)" d="M10 15.16h-0.667v0.667h0.667v-0.667z"></path>
<path fill="#2196f3" style="fill: var(--color2, #2196f3)" d="M10 16.493h-0.667v0.667h0.667v-0.667z"></path>
<path fill="#2196f3" style="fill: var(--color2, #2196f3)" d="M10.667 15.826h-0.667v0.667h0.667v-0.667z"></path>
<path fill="#2196f3" style="fill: var(--color2, #2196f3)" d="M9.333 15.826h-0.667v0.667h0.667v-0.667z"></path>
<path fill="#2196f3" style="fill: var(--color2, #2196f3)" d="M3.667 3.826h-0.667v0.667h0.667v-0.667z"></path>
<path fill="#2196f3" style="fill: var(--color2, #2196f3)" d="M3.667 5.16h-0.667v0.667h0.667v-0.667z"></path>
<path fill="#2196f3" style="fill: var(--color2, #2196f3)" d="M4.333 4.493h-0.667v0.667h0.667v-0.667z"></path>
<path fill="#2196f3" style="fill: var(--color2, #2196f3)" d="M3 4.493h-0.667v0.667h0.667v-0.667z"></path>
<path fill="#212121" style="fill: var(--color4, #212121)" d="M15.447 8.85c-0.18-0.242-0.443-0.398-0.743-0.44-0.301-0.043-0.597 0.036-0.837 0.22l-0.783 0.6-1.186 0.886-0.849-0.338c1.513-0.679 2.571-2.193 2.571-3.95 0-2.389-1.952-4.333-4.351-4.333s-4.351 1.944-4.351 4.333c0 0.866 0.259 1.671 0.7 2.349l-1.727-0.015c-0.001 0-0.002 0-0.003 0-0.005 0-0.010 0.003-0.015 0.003-0.033 0.001-0.065 0.008-0.097 0.019-0.008 0.003-0.016 0.005-0.024 0.008-0.004 0.002-0.008 0.002-0.012 0.004l-2.021 0.998c-0 0-0.001 0-0.001 0l-1.183 0.569c-0.013 0.006-0.026 0.013-0.039 0.022-0.472 0.314-0.632 0.931-0.374 1.435 0.138 0.268 0.372 0.465 0.66 0.556 0.111 0.035 0.224 0.052 0.337 0.052 0.181 0 0.36-0.044 0.525-0.132l0.867-0.461 1.415-0.731 0.848-0.005-3.401 3.385c-0 0-0.001 0-0.001 0.001l-0.837 0.833c-0.198 0.197-0.306 0.458-0.306 0.736s0.109 0.54 0.306 0.737c0.203 0.202 0.47 0.303 0.737 0.303s0.534-0.101 0.738-0.303l0.821-0.818 1.088-0.812 0.563 0.561-1.101 1.096c-0 0-0.001 0-0.001 0.001l-0.837 0.833c-0.198 0.197-0.306 0.458-0.306 0.736s0.109 0.54 0.306 0.737c0.203 0.202 0.47 0.303 0.737 0.303s0.534-0.101 0.738-0.303l2.176-2.167c0-0 0-0.001 0.001-0.001l0.631-0.625-0.002-0.002c0.004-0.004 0.010-0.005 0.014-0.010l3.229-3.536 2.169 0.309c0.016 0.002 0.031 0.003 0.047 0.003 0.040 0 0.079-0.010 0.117-0.024 0.011-0.004 0.021-0.009 0.031-0.015 0.012-0.006 0.025-0.009 0.036-0.017l2.008-1.333c0.007-0.005 0.011-0.013 0.018-0.018 0.008-0.006 0.018-0.009 0.025-0.016l0.795-0.744c0.413-0.387 0.47-1.022 0.132-1.476zM1.332 11.106c-0.108 0.058-0.231 0.070-0.349 0.032s-0.211-0.116-0.267-0.224c-0.101-0.196-0.042-0.435 0.134-0.564l0.821-0.395 0.281 0.82-0.62 0.33zM3.517 9.964l-0.968 0.5-0.274-0.802 1.267-0.625-0.025 0.927zM12.954 5.826c0 0.574-0.137 1.115-0.374 1.6l-2.613-1.187c-0.027-0.358-0.213-0.672-0.493-0.867l0.915-3.038c1.486 0.473 2.565 1.859 2.565 3.492zM5.586 5.826c0-2.022 1.653-3.667 3.684-3.667 0.158 0 0.313 0.013 0.466 0.033l-0.895 2.971c-0.012-0-0.023-0.004-0.036-0.004-0.645 0-1.17 0.523-1.17 1.167s0.525 1.167 1.17 1.167c0.434 0 0.809-0.24 1.011-0.59l2.414 1.097c-0.672 0.904-1.747 1.494-2.96 1.494-2.031 0-3.684-1.645-3.684-3.667zM9.309 6.326c0 0.276-0.226 0.5-0.504 0.5s-0.504-0.224-0.504-0.5c0-0.276 0.226-0.5 0.504-0.5s0.504 0.224 0.504 0.5zM1.541 15.716c-0.148 0.146-0.387 0.146-0.534 0-0.071-0.071-0.11-0.165-0.11-0.264s0.039-0.193 0.11-0.263l0.601-0.599 0.532 0.53-0.599 0.597zM3.549 18.050c-0.148 0.146-0.387 0.147-0.534 0-0.071-0.071-0.11-0.165-0.11-0.264s0.039-0.193 0.11-0.263l0.602-0.599 0.532 0.53-0.6 0.597zM5.725 15.882c-0 0-0.001 0-0.001 0.001l-1.103 1.1-0.532-0.53 1.102-1.097c0 0 0 0 0-0s0.001-0 0.001-0.001c0.025-0.025 0.041-0.055 0.056-0.085 0.004-0.009 0.013-0.016 0.016-0.025 0.010-0.026 0.012-0.053 0.016-0.080 0.002-0.015 0.009-0.030 0.009-0.045 0-0.022-0.008-0.044-0.013-0.066-0.004-0.020-0.004-0.040-0.012-0.060-0.013-0.031-0.034-0.059-0.057-0.086-0.006-0.007-0.009-0.017-0.016-0.024 0 0 0 0-0 0s-0-0.001-0.001-0.001l-1.004-1c-0.011-0.011-0.024-0.015-0.036-0.024-0.018-0.014-0.035-0.026-0.054-0.036s-0.038-0.015-0.058-0.020c-0.021-0.006-0.042-0.011-0.064-0.012-0.020-0.001-0.039 0.001-0.060 0.003-0.022 0.003-0.043 0.006-0.065 0.013s-0.040 0.017-0.059 0.028c-0.012 0.007-0.026 0.009-0.038 0.018l-1.108 0.827-0.563-0.561 1.499-1.491 2.725 2.68-0.58 0.574zM9.987 11.496c-0.010-0.001-0.019 0.002-0.028 0.002-0.024-0.001-0.048 0-0.072 0.004-0.019 0.003-0.037 0.007-0.055 0.013-0.021 0.007-0.041 0.017-0.060 0.029-0.019 0.011-0.036 0.023-0.052 0.038-0.008 0.007-0.018 0.010-0.025 0.018l-2.936 3.216-2.705-2.66 1.771-1.761c0.13-0.13 0.131-0.341 0.001-0.472-0.066-0.066-0.152-0.098-0.238-0.098v-0l-1.387 0.008 0.017-1.005 1.94 0.017c0.791 0.809 1.893 1.313 3.113 1.313 0.273 0 0.54-0.028 0.8-0.077 0.025 0.020 0.050 0.040 0.081 0.053l1.506 0.6 0.095 0.474 0.111 0.553-1.877-0.267zM12.513 11.608l-0.196-0.974 0.904-0.675 0.592 0.785-1.3 0.863zM14.859 9.838l-0.524 0.491-0.582-0.773 0.52-0.398c0.097-0.075 0.219-0.105 0.339-0.089 0.121 0.017 0.227 0.080 0.3 0.178 0.135 0.182 0.112 0.437-0.053 0.592z"></path>
<path fill="#212121" style="fill: var(--color4, #212121)" d="M8.501 11.59l-1.339-1.333c-0.13-0.13-0.34-0.13-0.47 0l-1.339 1.333c-0.063 0.063-0.098 0.148-0.098 0.236s0.035 0.174 0.098 0.236l1.339 1.333c0.065 0.065 0.15 0.097 0.235 0.097s0.17-0.032 0.235-0.097l1.339-1.333c0.063-0.063 0.098-0.148 0.098-0.236s-0.035-0.174-0.098-0.236zM6.927 12.689l-0.867-0.863 0.867-0.863 0.867 0.863-0.867 0.863z"></path>
<path fill="#212121" style="fill: var(--color4, #212121)" d="M10.728 3.169l-0.161 0.647c0.044 0.011 1.086 0.282 1.086 1.343h0.667c-0-1.261-1.041-1.853-1.592-1.99z"></path>
<path fill="#212121" style="fill: var(--color4, #212121)" d="M12.319 5.826h-0.667v0.667h0.667v-0.667z"></path>
</symbol>
<symbol id="icon-clock-1" viewBox="0 0 20 20">
<path fill="#212121" style="fill: var(--color4, #212121)" d="M19.56 9.563c-0.001-5.283-4.285-9.564-9.567-9.563s-9.564 4.285-9.563 9.567c0.001 4.161 2.692 7.844 6.656 9.11 0.038 0.012 0.077 0.018 0.117 0.018 0.075-0 0.149-0.020 0.214-0.059 0.084-0.050 0.147-0.129 0.177-0.223l2.416-7.656c0.66-0.003 1.193-0.542 1.189-1.202s-0.541-1.193-1.202-1.19c-0.178 0.001-0.353 0.042-0.513 0.12l-3.191-3.192c-0.158-0.153-0.411-0.148-0.564 0.010-0.149 0.155-0.149 0.399 0 0.554l3.19 3.193c-0.245 0.5-0.105 1.103 0.335 1.443l-2.302 7.296c-4.549-1.676-6.878-6.721-5.202-11.27s6.721-6.878 11.27-5.202 6.878 6.721 5.202 11.27c-0.819 2.222-2.501 4.019-4.664 4.983l-0.249-1.171c-0.045-0.215-0.257-0.353-0.472-0.307-0.068 0.015-0.131 0.046-0.183 0.093l-2.398 2.141c-0.165 0.146-0.179 0.398-0.033 0.563 0.048 0.053 0.109 0.093 0.177 0.115l3.062 0.977c0.21 0.067 0.434-0.048 0.501-0.258 0.021-0.066 0.025-0.137 0.011-0.205l-0.244-1.149c3.54-1.492 5.839-4.964 5.831-8.806v0zM9.995 9.165c0.22 0 0.399 0.179 0.399 0.399s-0.179 0.399-0.399 0.399c-0.22 0-0.399-0.178-0.399-0.399s0.178-0.399 0.399-0.399zM11.308 18.455l1.365-1.218 0.377 1.775-1.742-0.558z"></path>
<path fill="#2196f3" style="fill: var(--color2, #2196f3)" d="M9.597 1.991v0.797c0 0.22 0.178 0.399 0.399 0.399s0.399-0.178 0.399-0.399v-0.797c0-0.22-0.179-0.399-0.399-0.399s-0.399 0.179-0.399 0.399z"></path>
<path fill="#2196f3" style="fill: var(--color2, #2196f3)" d="M2.422 9.165c-0.22 0-0.399 0.179-0.399 0.399s0.178 0.399 0.399 0.399h0.797c0.22 0 0.399-0.178 0.399-0.399s-0.178-0.399-0.399-0.399h-0.797z"></path>
<path fill="#2196f3" style="fill: var(--color2, #2196f3)" d="M17.568 9.962c0.22 0 0.399-0.178 0.399-0.399s-0.178-0.399-0.399-0.399h-0.797c-0.22 0-0.399 0.179-0.399 0.399s0.179 0.399 0.399 0.399h0.797z"></path>
</symbol>
<symbol id="icon-diagram-1" viewBox="0 0 20 20">
<path fill="#2196f3" style="fill: var(--color2, #2196f3)" d="M9.328 9.353h0.666v2.998h-0.666v-2.998z"></path>
<path fill="#2196f3" style="fill: var(--color2, #2196f3)" d="M11.994 10.686h0.666v1.666h-0.666v-1.666z"></path>
<path fill="#2196f3" style="fill: var(--color2, #2196f3)" d="M6.663 11.685h0.666v0.666h-0.666v-0.666z"></path>
<path fill="#2196f3" style="fill: var(--color2, #2196f3)" d="M4.664 11.352h0.666v0.999h-0.666v-0.999z"></path>
<path fill="#212121" style="fill: var(--color4, #212121)" d="M0.999 17.682h15.992c0.552 0 0.999-0.448 0.999-0.999v-1.333c0-0.552-0.448-0.999-0.999-0.999h-0.333v-8.308l1.892-1.793c0.439 0.217 0.971 0.085 1.258-0.312s0.247-0.943-0.095-1.293-0.888-0.402-1.291-0.124c-0.403 0.279-0.546 0.807-0.339 1.251l-1.426 1.352v-0.769c0-0.552-0.448-0.999-0.999-0.999h-13.326c-0.552 0-0.999 0.448-0.999 0.999v9.995h-0.333c-0.552 0-0.999 0.448-0.999 0.999v1.333c0 0.552 0.448 0.999 0.999 0.999zM18.99 3.023c0.184 0 0.333 0.149 0.333 0.333s-0.149 0.333-0.333 0.333c-0.184 0-0.333-0.149-0.333-0.333s0.149-0.333 0.333-0.333zM1.999 4.355c0-0.184 0.149-0.333 0.333-0.333h13.326c0.184 0 0.333 0.149 0.333 0.333v1.399l-0.666 0.633v-1.366c0-0.184-0.149-0.333-0.333-0.333h-11.994c-0.184 0-0.333 0.149-0.333 0.333v8.329c0 0.184 0.149 0.333 0.333 0.333h11.994c0.184 0 0.333-0.149 0.333-0.333v-6.046l0.666-0.631v7.677h-13.993v-9.995zM4.997 8.687c-0.451-0.001-0.847 0.299-0.966 0.733s0.066 0.895 0.453 1.125c0.387 0.23 0.881 0.172 1.205-0.141l1.158 0.581c0.135 0.067 0.298 0.036 0.398-0.077l2.462-2.77 2.42 1.813c0.13 0.097 0.311 0.087 0.429-0.025l2.103-1.992v5.082h-11.327v-7.663h11.327v1.663l-2.357 2.232-2.44-1.829c-0.139-0.104-0.334-0.084-0.449 0.045l-2.496 2.808-0.933-0.467c0.007-0.040 0.011-0.080 0.013-0.121 0-0.552-0.448-0.999-0.999-0.999zM5.331 9.686c0 0.184-0.149 0.333-0.333 0.333s-0.333-0.149-0.333-0.333c0-0.184 0.149-0.333 0.333-0.333s0.333 0.149 0.333 0.333zM7.329 15.017h3.332v0.333c0 0.184-0.149 0.333-0.333 0.333h-2.665c-0.184 0-0.333-0.149-0.333-0.333v-0.333zM0.666 15.35c0-0.184 0.149-0.333 0.333-0.333h5.664v0.333c0 0.552 0.448 0.999 0.999 0.999h2.665c0.552 0 0.999-0.448 0.999-0.999v-0.333h5.664c0.184 0 0.333 0.149 0.333 0.333v1.333c0 0.184-0.149 0.333-0.333 0.333h-15.992c-0.184 0-0.333-0.149-0.333-0.333v-1.333z"></path>
</symbol>
<symbol id="icon-facebook-1" viewBox="0 0 20 20">
<path fill="#afb1b8" style="fill: var(--color1, #afb1b8)" d="M13.331 3.321h1.826v-3.18c-0.315-0.043-1.398-0.141-2.66-0.141-2.632 0-4.436 1.656-4.436 4.699v2.801h-2.905v3.555h2.905v8.945h3.562v-8.944h2.787l0.442-3.555h-3.231v-2.449c0.001-1.027 0.277-1.731 1.709-1.731v0z"></path>
</symbol>
<symbol id="icon-instagram-2" viewBox="0 0 20 20">
<path fill="#afb1b8" style="fill: var(--color1, #afb1b8)" d="M19.98 5.88c-0.047-1.063-0.219-1.793-0.465-2.426-0.254-0.672-0.645-1.274-1.157-1.774-0.5-0.508-1.106-0.903-1.77-1.153-0.637-0.246-1.363-0.418-2.426-0.465-1.071-0.051-1.411-0.063-4.126-0.063s-3.055 0.012-4.122 0.059c-1.063 0.047-1.793 0.219-2.426 0.465-0.672 0.254-1.274 0.645-1.774 1.157-0.508 0.5-0.902 1.106-1.153 1.77-0.246 0.637-0.418 1.363-0.465 2.426-0.051 1.071-0.063 1.41-0.063 4.126s0.012 3.055 0.059 4.122c0.047 1.063 0.219 1.793 0.465 2.426 0.254 0.672 0.648 1.274 1.156 1.774 0.5 0.508 1.106 0.903 1.77 1.153 0.637 0.246 1.363 0.418 2.426 0.465 1.066 0.047 1.407 0.059 4.122 0.059s3.055-0.012 4.122-0.059c1.063-0.047 1.793-0.219 2.426-0.465 1.344-0.52 2.407-1.582 2.927-2.926 0.246-0.637 0.418-1.364 0.465-2.426 0.047-1.067 0.059-1.407 0.059-4.122s-0.004-3.055-0.051-4.122zM18.179 14.046c-0.043 0.977-0.207 1.504-0.344 1.856-0.336 0.871-1.028 1.563-1.899 1.899-0.352 0.137-0.883 0.301-1.856 0.344-1.055 0.047-1.371 0.059-4.040 0.059s-2.989-0.012-4.040-0.059c-0.977-0.043-1.504-0.207-1.856-0.344-0.434-0.16-0.828-0.414-1.149-0.746-0.332-0.324-0.586-0.715-0.746-1.149-0.137-0.352-0.301-0.883-0.344-1.856-0.047-1.055-0.059-1.371-0.059-4.040s0.012-2.989 0.059-4.040c0.043-0.977 0.207-1.504 0.344-1.856 0.16-0.434 0.414-0.828 0.75-1.149 0.324-0.332 0.715-0.586 1.149-0.746 0.352-0.137 0.883-0.301 1.856-0.344 1.055-0.047 1.371-0.059 4.040-0.059 2.673 0 2.989 0.012 4.040 0.059 0.977 0.043 1.504 0.207 1.856 0.344 0.433 0.16 0.828 0.414 1.149 0.746 0.332 0.324 0.586 0.715 0.746 1.149 0.137 0.352 0.301 0.883 0.344 1.856 0.047 1.055 0.059 1.371 0.059 4.040s-0.012 2.981-0.059 4.036z"></path>
<path fill="#afb1b8" style="fill: var(--color1, #afb1b8)" d="M10.037 4.864c-2.836 0-5.138 2.301-5.138 5.138s2.301 5.138 5.138 5.138c2.837 0 5.138-2.301 5.138-5.138s-2.301-5.138-5.138-5.138zM10.037 13.335c-1.84 0-3.333-1.492-3.333-3.333s1.493-3.333 3.333-3.333c1.84 0 3.333 1.492 3.333 3.333s-1.492 3.333-3.333 3.333z"></path>
<path fill="#afb1b8" style="fill: var(--color1, #afb1b8)" d="M16.578 4.661c0 0.662-0.537 1.199-1.2 1.199s-1.199-0.537-1.199-1.199c0-0.663 0.537-1.199 1.199-1.199s1.2 0.537 1.2 1.199z"></path>
</symbol>
<symbol id="icon-linkedin-1" viewBox="0 0 20 20">
<path fill="#afb1b8" style="fill: var(--color1, #afb1b8)" d="M19.995 20v-0.001h0.005v-7.335c0-3.588-0.773-6.352-4.968-6.352-2.017 0-3.37 1.107-3.922 2.156h-0.058v-1.821h-3.978v13.352h4.142v-6.612c0-1.741 0.33-3.424 2.486-3.424 2.124 0 2.156 1.987 2.156 3.536v6.501h4.138z"></path>
<path fill="#afb1b8" style="fill: var(--color1, #afb1b8)" d="M0.33 6.647h4.147v13.353h-4.147v-13.353z"></path>
<path fill="#afb1b8" style="fill: var(--color1, #afb1b8)" d="M2.402 0c-1.326 0-2.402 1.076-2.402 2.402s1.076 2.424 2.402 2.424c1.326 0 2.402-1.098 2.402-2.424s-1.077-2.402-2.402-2.402v0z"></path>
</symbol>
<symbol id="icon-logo-1" viewBox="0 0 35 20">
<path fill="#afb1b8" style="fill: var(--color1, #afb1b8)" d="M12.459 2.529l2.298 2.175-4.265-0.003v10.553h11.148v-4.035l2.295 2.173v-10.864h-11.475zM21.538 10.964l-6.515-6.167h6.515v6.167zM19.516 13.711h-7.26v-7.098h0.513v6.617h6.747v0.481zM13.97 16.66l-0.268 0.552-0.268-0.552h-0.225l0.391 0.736v0.429h0.203v-0.429l0.391-0.736h-0.224zM14.307 17.825l0.094-0.271h0.451l0.095 0.271h0.211l-0.441-1.165h-0.182l-0.44 1.165h0.211zM14.627 16.907l0.169 0.483h-0.338l0.169-0.483zM15.695 17.363c-0.029 0.045-0.044 0.094-0.044 0.148 0 0.098 0.034 0.178 0.103 0.239s0.162 0.091 0.277 0.091 0.215-0.031 0.298-0.094l0.066 0.078h0.226l-0.171-0.203c0.067-0.092 0.101-0.209 0.101-0.353h-0.169c0 0.078-0.016 0.15-0.049 0.214l-0.225-0.266 0.079-0.058c0.056-0.041 0.096-0.081 0.121-0.122s0.037-0.086 0.037-0.134c0-0.074-0.027-0.135-0.082-0.185s-0.123-0.075-0.208-0.075c-0.094 0-0.169 0.027-0.224 0.080s-0.083 0.125-0.083 0.216c0 0.037 0.009 0.076 0.026 0.116s0.050 0.089 0.095 0.146c-0.086 0.062-0.144 0.116-0.174 0.161zM16.221 17.62c-0.057 0.044-0.118 0.066-0.184 0.066-0.058 0-0.105-0.017-0.139-0.050s-0.052-0.077-0.052-0.131c0-0.062 0.032-0.118 0.096-0.166l0.025-0.018 0.255 0.3zM16.012 17.104c-0.055-0.068-0.082-0.124-0.082-0.169 0-0.039 0.011-0.071 0.034-0.097s0.053-0.038 0.090-0.038c0.035 0 0.064 0.011 0.087 0.033s0.034 0.047 0.034 0.078c0 0.046-0.017 0.084-0.050 0.113l-0.025 0.020-0.089 0.061zM17.909 17.737c0.080-0.070 0.126-0.167 0.138-0.291h-0.202c-0.011 0.083-0.036 0.143-0.076 0.179s-0.1 0.054-0.179 0.054c-0.087 0-0.153-0.033-0.198-0.099s-0.067-0.162-0.067-0.288v-0.103c0.001-0.124 0.025-0.219 0.072-0.283s0.115-0.097 0.203-0.097c0.076 0 0.133 0.019 0.172 0.056s0.064 0.097 0.074 0.181h0.202c-0.013-0.128-0.058-0.226-0.137-0.296s-0.182-0.105-0.311-0.105c-0.096 0-0.18 0.023-0.253 0.068s-0.128 0.11-0.167 0.194c-0.039 0.084-0.058 0.181-0.058 0.291v0.109c0.002 0.107 0.022 0.201 0.060 0.283s0.093 0.144 0.163 0.188c0.071 0.044 0.153 0.066 0.246 0.066 0.133 0 0.239-0.035 0.319-0.104zM19.099 17.574c0.040-0.086 0.059-0.187 0.059-0.301v-0.065c-0.001-0.114-0.021-0.213-0.061-0.299s-0.097-0.152-0.17-0.197c-0.073-0.046-0.157-0.069-0.252-0.069s-0.179 0.023-0.253 0.070c-0.073 0.046-0.13 0.112-0.17 0.199s-0.060 0.187-0.060 0.301v0.066c0.001 0.112 0.021 0.21 0.061 0.295s0.098 0.151 0.171 0.198c0.074 0.046 0.158 0.069 0.253 0.069 0.096 0 0.18-0.023 0.253-0.069s0.13-0.113 0.17-0.199zM18.883 16.915c0.049 0.069 0.074 0.168 0.074 0.297v0.061c0 0.131-0.024 0.231-0.073 0.299s-0.117 0.102-0.206 0.102c-0.089 0-0.158-0.035-0.208-0.105s-0.074-0.169-0.074-0.297v-0.067c0.001-0.125 0.026-0.222 0.075-0.291s0.118-0.103 0.206-0.103c0.090 0 0.159 0.034 0.207 0.103z"></path>
</symbol>
<symbol id="icon-logo-2" viewBox="0 0 35 20">
<path fill="#afb1b8" style="fill: var(--color1, #afb1b8)" d="M16.431 2.18h-0.045c-0.069-0.004-0.138-0.006-0.207-0.008v0h-0.149c-0.13 0-0.263 0.003-0.395 0.010-0.010-0.001-0.020-0.001-0.030 0-1.195 0.068-2.366 0.366-3.448 0.88l-0.142 0.068v7.259l0.332-0.113c0.291-0.1 0.601-0.19 0.922-0.273 0.868-0.223 1.759-0.341 2.654-0.353v0.954c-0.119 0.001-0.234 0.004-0.349 0.010h-0.027c-0.689 0.038-1.373 0.143-2.042 0.313-0.847 0.212-1.665 0.531-2.433 0.948v-9.31c0.798-0.465 1.657-0.815 2.552-1.038 0.786-0.203 1.594-0.307 2.405-0.31h0.14c0.168 0.004 0.331 0.012 0.484 0.023 0.404 0.028 0.805 0.092 1.198 0.191v0.939c-0.382-0.089-0.77-0.148-1.161-0.175-0.008-0.001-0.016-0.001-0.024-0.002-0.081-0.007-0.162-0.014-0.237-0.014zM18.083 3.139c0.208 0.016 0.424 0.023 0.642 0.023 0.853-0.003 1.702-0.112 2.529-0.324 0.847-0.213 1.664-0.532 2.432-0.949v9.144c-0.798 0.465-1.658 0.814-2.553 1.038-0.786 0.202-1.594 0.306-2.405 0.309-0.615 0.005-1.228-0.067-1.825-0.215v-9.204c0.141 0.033 0.286 0.063 0.434 0.088 0.242 0.041 0.498 0.071 0.746 0.089zM22.737 3.21l-0.332 0.112c-0.305 0.103-0.613 0.194-0.922 0.276-0.901 0.231-1.826 0.35-2.756 0.354-0.216 0-0.416-0.006-0.608-0.018l-0.265-0.017v7.468l0.227 0.020c0.211 0.018 0.428 0.027 0.647 0.027 0.732-0.003 1.461-0.098 2.171-0.281 0.584-0.146 1.152-0.351 1.696-0.609l0.142-0.068v-7.262z"></path>
<path fill="#afb1b8" style="fill: var(--color1, #afb1b8)" d="M11.717 15.058c-0.048-0.049-0.105-0.088-0.169-0.114s-0.132-0.038-0.2-0.035c-0.073-0.001-0.145 0.013-0.213 0.040-0.062 0.025-0.119 0.062-0.166 0.109s-0.083 0.104-0.107 0.167c-0.026 0.065-0.039 0.135-0.038 0.206v1.244c-0.003 0.088 0.014 0.175 0.049 0.255 0.029 0.064 0.072 0.121 0.124 0.167 0.050 0.042 0.108 0.072 0.171 0.088 0.060 0.017 0.123 0.026 0.186 0.026 0.069 0.001 0.138-0.014 0.201-0.043 0.062-0.027 0.119-0.066 0.166-0.115 0.046-0.048 0.083-0.105 0.109-0.167s0.040-0.13 0.040-0.198v-0.139h-0.325v0.111c0.001 0.038-0.006 0.076-0.019 0.111-0.011 0.026-0.027 0.050-0.047 0.070-0.020 0.016-0.043 0.028-0.068 0.036-0.022 0.007-0.045 0.011-0.068 0.012-0.029 0.003-0.058-0.001-0.085-0.013s-0.050-0.030-0.067-0.054c-0.031-0.050-0.046-0.108-0.043-0.167v-1.16c-0.002-0.064 0.012-0.128 0.040-0.186 0.017-0.026 0.041-0.047 0.069-0.060s0.059-0.018 0.090-0.015c0.028-0.001 0.056 0.005 0.081 0.017s0.047 0.030 0.064 0.053c0.036 0.048 0.055 0.107 0.054 0.167v0.108h0.322v-0.127c0.001-0.074-0.013-0.148-0.040-0.218-0.024-0.065-0.061-0.125-0.109-0.175z"></path>
<path fill="#afb1b8" style="fill: var(--color1, #afb1b8)" d="M13.649 15.043c-0.104-0.088-0.235-0.136-0.37-0.137-0.066 0-0.132 0.012-0.194 0.035s-0.121 0.057-0.172 0.102c-0.054 0.048-0.097 0.108-0.126 0.174-0.033 0.076-0.049 0.158-0.047 0.241v1.193c-0.002 0.084 0.014 0.167 0.047 0.244 0.029 0.064 0.072 0.121 0.126 0.167 0.050 0.046 0.108 0.082 0.172 0.105 0.062 0.023 0.128 0.035 0.194 0.035s0.132-0.012 0.194-0.035c0.065-0.024 0.124-0.059 0.176-0.105s0.094-0.103 0.123-0.167c0.033-0.077 0.050-0.16 0.047-0.244v-1.193c0.002-0.083-0.015-0.165-0.047-0.241-0.029-0.066-0.071-0.125-0.123-0.174zM13.497 16.652c0.003 0.032-0.002 0.064-0.013 0.094s-0.029 0.057-0.052 0.079c-0.043 0.036-0.097 0.056-0.153 0.056s-0.11-0.020-0.153-0.056c-0.023-0.022-0.041-0.049-0.052-0.079s-0.016-0.062-0.013-0.094v-1.193c-0.003-0.032 0.002-0.064 0.013-0.094s0.029-0.057 0.052-0.079c0.043-0.036 0.097-0.056 0.153-0.056s0.11 0.020 0.153 0.056c0.023 0.022 0.041 0.049 0.052 0.079s0.016 0.062 0.013 0.094v1.193z"></path>
<path fill="#afb1b8" style="fill: var(--color1, #afb1b8)" d="M16.186 17.184v-2.259h-0.313l-0.411 1.196h-0.006l-0.414-1.196h-0.309v2.259h0.323v-1.374h0.006l0.316 0.971h0.161l0.318-0.971h0.006v1.374h0.323z"></path>
<path fill="#afb1b8" style="fill: var(--color1, #afb1b8)" d="M18.019 15.084c-0.050-0.056-0.112-0.098-0.183-0.123-0.076-0.025-0.155-0.036-0.234-0.035h-0.479v2.259h0.322v-0.882h0.166c0.1 0.005 0.2-0.017 0.29-0.062 0.073-0.041 0.134-0.1 0.177-0.173 0.037-0.060 0.062-0.127 0.074-0.197 0.013-0.085 0.018-0.171 0.017-0.257 0.003-0.108-0.007-0.217-0.032-0.323-0.021-0.078-0.062-0.15-0.119-0.208zM17.853 15.773c-0.001 0.041-0.012 0.081-0.030 0.118-0.018 0.035-0.047 0.063-0.083 0.079-0.048 0.021-0.1 0.031-0.152 0.028h-0.147v-0.768h0.166c0.050-0.002 0.1 0.007 0.145 0.028 0.033 0.019 0.060 0.048 0.075 0.083 0.018 0.040 0.027 0.082 0.028 0.126 0 0.048 0 0.098 0 0.15s0.003 0.107 0 0.155h-0.003z"></path>
<path fill="#afb1b8" style="fill: var(--color1, #afb1b8)" d="M19.544 14.926h-0.264l-0.498 2.259h0.322l0.095-0.485h0.439l0.095 0.485h0.322l-0.51-2.259zM19.247 16.392l0.158-0.819h0.006l0.158 0.819h-0.322z"></path>
<path fill="#afb1b8" style="fill: var(--color1, #afb1b8)" d="M21.623 16.286h-0.006l-0.486-1.361h-0.309v2.259h0.322v-1.358h0.007l0.492 1.358h0.303v-2.259h-0.322v1.361z"></path>
<path fill="#afb1b8" style="fill: var(--color1, #afb1b8)" d="M23.589 14.926l-0.259 0.898h-0.007l-0.259-0.898h-0.341l0.442 1.304v0.955h0.322v-0.955l0.442-1.304h-0.341z"></path>
<path fill="#afb1b8" style="fill: var(--color1, #afb1b8)" d="M10.82 17.822h0.155v0.435h0.105v-0.435h0.154v-0.089h-0.415v0.089z"></path>
<path fill="#afb1b8" style="fill: var(--color1, #afb1b8)" d="M12.124 17.733l-0.203 0.524h0.112l0.043-0.119h0.209l0.045 0.119h0.114l-0.208-0.524h-0.112zM12.107 18.050l0.071-0.194 0.071 0.194h-0.143z"></path>
<path fill="#afb1b8" style="fill: var(--color1, #afb1b8)" d="M13.412 18.064h0.121v0.067c-0.035 0.028-0.079 0.044-0.124 0.044-0.021 0.001-0.042-0.003-0.062-0.011s-0.036-0.022-0.050-0.039c-0.028-0.040-0.042-0.088-0.039-0.137 0-0.117 0.051-0.175 0.151-0.175 0.026-0.003 0.053 0.004 0.075 0.020s0.037 0.038 0.044 0.064l0.104-0.020c-0.022-0.103-0.096-0.154-0.222-0.154-0.067-0.002-0.133 0.022-0.183 0.068-0.026 0.026-0.047 0.058-0.060 0.092s-0.018 0.072-0.016 0.109c-0.003 0.072 0.021 0.142 0.067 0.197 0.026 0.026 0.057 0.047 0.091 0.060s0.071 0.019 0.108 0.016c0.082 0.002 0.162-0.028 0.222-0.083v-0.207h-0.227v0.088z"></path>
<path fill="#afb1b8" style="fill: var(--color1, #afb1b8)" d="M14.729 17.733h-0.106v0.524h0.367v-0.089h-0.261v-0.435z"></path>
<path fill="#afb1b8" style="fill: var(--color1, #afb1b8)" d="M15.842 17.733h-0.106v0.524h0.106v-0.524z"></path>
<path fill="#afb1b8" style="fill: var(--color1, #afb1b8)" d="M16.93 18.083l-0.215-0.35h-0.103v0.524h0.099v-0.343l0.211 0.343h0.105v-0.524h-0.097v0.35z"></path>
<path fill="#afb1b8" style="fill: var(--color1, #afb1b8)" d="M17.914 18.026h0.261v-0.089h-0.261v-0.115h0.281v-0.089h-0.387v0.524h0.398v-0.089h-0.292v-0.142z"></path>
<path fill="#afb1b8" style="fill: var(--color1, #afb1b8)" d="M20.299 17.94h-0.207v-0.207h-0.105v0.524h0.105v-0.229h0.207v0.229h0.105v-0.524h-0.105v0.207z"></path>
<path fill="#afb1b8" style="fill: var(--color1, #afb1b8)" d="M21.289 18.026h0.262v-0.089h-0.262v-0.115h0.282v-0.089h-0.387v0.524h0.397v-0.089h-0.292v-0.142z"></path>
<path fill="#afb1b8" style="fill: var(--color1, #afb1b8)" d="M22.631 18.026c0.091-0.014 0.138-0.063 0.138-0.146 0.003-0.022-0.001-0.045-0.010-0.065s-0.023-0.038-0.042-0.051c-0.047-0.024-0.1-0.034-0.153-0.031h-0.222v0.524h0.105v-0.219h0.021c0.022-0.001 0.045 0.003 0.066 0.012 0.015 0.010 0.028 0.023 0.037 0.038l0.114 0.167h0.126l-0.064-0.103c-0.028-0.051-0.068-0.094-0.116-0.126zM22.524 17.954h-0.078v-0.132h0.083c0.036-0.003 0.073 0.001 0.107 0.013 0.008 0.007 0.014 0.015 0.018 0.025s0.006 0.020 0.005 0.030c-0 0.010-0.003 0.020-0.008 0.029s-0.012 0.017-0.020 0.023c-0.035 0.011-0.071 0.015-0.107 0.012z"></path>
<path fill="#afb1b8" style="fill: var(--color1, #afb1b8)" d="M23.643 18.026h0.261v-0.089h-0.261v-0.115h0.282v-0.089h-0.388v0.524h0.398v-0.089h-0.292v-0.142z"></path>
</symbol>
<symbol id="icon-logo-3" viewBox="0 0 35 20">
<path fill="#afb1b8" style="fill: var(--color1, #afb1b8)" d="M12.135 16.367c0.005 0 0.011 0.001 0.015 0.003s0.009 0.005 0.013 0.008l0.073 0.069c-0.056 0.056-0.126 0.101-0.204 0.132-0.092 0.033-0.191 0.050-0.29 0.047-0.093 0.002-0.186-0.013-0.273-0.044-0.078-0.028-0.148-0.071-0.205-0.125-0.059-0.056-0.104-0.121-0.133-0.193-0.032-0.079-0.047-0.163-0.046-0.247-0.001-0.085 0.016-0.169 0.050-0.248 0.032-0.072 0.080-0.137 0.141-0.193 0.062-0.054 0.136-0.097 0.218-0.126 0.089-0.030 0.185-0.045 0.281-0.044 0.089-0.002 0.178 0.012 0.261 0.040 0.072 0.027 0.138 0.065 0.195 0.111l-0.061 0.074c-0.004 0.005-0.009 0.010-0.015 0.013-0.007 0.004-0.016 0.006-0.025 0.006s-0.019-0.003-0.026-0.008l-0.033-0.020-0.045-0.025c-0.020-0.009-0.040-0.018-0.061-0.024-0.027-0.008-0.055-0.015-0.083-0.020-0.036-0.006-0.072-0.008-0.108-0.008-0.069-0.001-0.138 0.011-0.202 0.033-0.060 0.021-0.114 0.053-0.158 0.093-0.045 0.043-0.080 0.094-0.103 0.148-0.026 0.063-0.038 0.129-0.037 0.196-0.001 0.068 0.012 0.135 0.037 0.199 0.022 0.054 0.056 0.105 0.101 0.148 0.042 0.040 0.093 0.071 0.151 0.092 0.059 0.021 0.123 0.032 0.187 0.032 0.037 0.001 0.074-0.002 0.111-0.006 0.060-0.006 0.117-0.024 0.168-0.053 0.025-0.015 0.049-0.031 0.072-0.049 0.009-0.008 0.022-0.012 0.035-0.013z"></path>
<path fill="#afb1b8" style="fill: var(--color1, #afb1b8)" d="M14.235 16.018c0.001 0.084-0.016 0.167-0.049 0.246-0.030 0.071-0.076 0.136-0.137 0.191s-0.134 0.097-0.215 0.125c-0.178 0.059-0.375 0.059-0.553 0-0.080-0.028-0.153-0.071-0.214-0.126-0.061-0.055-0.108-0.121-0.138-0.193-0.065-0.159-0.065-0.333 0-0.492 0.031-0.072 0.078-0.137 0.138-0.193 0.061-0.053 0.134-0.094 0.214-0.121 0.178-0.060 0.375-0.060 0.553 0 0.081 0.028 0.154 0.071 0.214 0.126s0.106 0.12 0.137 0.19c0.034 0.079 0.050 0.163 0.049 0.247zM14.044 16.018c0.001-0.067-0.010-0.134-0.035-0.197-0.020-0.054-0.053-0.105-0.097-0.148-0.043-0.041-0.095-0.072-0.154-0.093-0.129-0.043-0.272-0.043-0.402 0-0.058 0.021-0.111 0.053-0.154 0.093-0.044 0.043-0.078 0.093-0.098 0.148-0.046 0.129-0.046 0.266 0 0.395 0.021 0.055 0.054 0.105 0.098 0.148 0.043 0.040 0.095 0.072 0.154 0.092 0.13 0.042 0.272 0.042 0.402 0 0.058-0.021 0.111-0.052 0.154-0.092 0.044-0.043 0.077-0.093 0.097-0.148 0.024-0.064 0.036-0.13 0.035-0.197z"></path>
<path fill="#afb1b8" style="fill: var(--color1, #afb1b8)" d="M15.667 16.225l0.019 0.044c0.007-0.016 0.014-0.030 0.021-0.044s0.015-0.029 0.024-0.043l0.464-0.734c0.009-0.013 0.017-0.021 0.026-0.023 0.012-0.003 0.025-0.005 0.038-0.004h0.137v1.193h-0.163v-0.877c0-0.011 0-0.024 0-0.037s-0.001-0.027 0-0.041l-0.467 0.744c-0.006 0.011-0.015 0.021-0.027 0.027s-0.026 0.010-0.040 0.010h-0.026c-0.014 0-0.028-0.003-0.040-0.010s-0.021-0.016-0.027-0.027l-0.481-0.749c0 0.014 0 0.028 0 0.043s0 0.027 0 0.038v0.877h-0.157v-1.191h0.137c0.013-0.001 0.026 0.001 0.038 0.004 0.011 0.005 0.020 0.013 0.025 0.023l0.474 0.734c0.009 0.014 0.017 0.028 0.024 0.043z"></path>
<path fill="#afb1b8" style="fill: var(--color1, #afb1b8)" d="M17.415 16.166v0.447h-0.182v-1.191h0.405c0.077-0.001 0.153 0.008 0.226 0.026 0.059 0.014 0.113 0.040 0.16 0.074 0.040 0.032 0.072 0.072 0.091 0.117 0.021 0.049 0.032 0.1 0.031 0.152 0.001 0.052-0.011 0.104-0.034 0.152-0.022 0.046-0.055 0.087-0.098 0.119-0.047 0.036-0.101 0.063-0.161 0.079-0.071 0.020-0.145 0.029-0.219 0.028l-0.22-0.003zM17.415 16.038h0.22c0.048 0.001 0.095-0.006 0.141-0.018 0.038-0.011 0.072-0.028 0.102-0.051 0.027-0.022 0.048-0.049 0.062-0.079 0.015-0.032 0.022-0.066 0.022-0.1 0.002-0.033-0.004-0.066-0.018-0.097s-0.036-0.059-0.064-0.081c-0.069-0.047-0.157-0.070-0.244-0.064h-0.22v0.491z"></path>
<path fill="#afb1b8" style="fill: var(--color1, #afb1b8)" d="M19.858 16.614h-0.144c-0.014 0-0.029-0.003-0.040-0.011-0.010-0.007-0.018-0.017-0.024-0.028l-0.124-0.288h-0.621l-0.128 0.288c-0.005 0.011-0.013 0.020-0.023 0.027-0.012 0.008-0.026 0.012-0.041 0.012h-0.144l0.545-1.193h0.189l0.553 1.193zM18.958 16.171h0.513l-0.216-0.486c-0.017-0.037-0.030-0.074-0.041-0.112l-0.021 0.062c-0.006 0.019-0.014 0.036-0.020 0.051l-0.214 0.485z"></path>
<path fill="#afb1b8" style="fill: var(--color1, #afb1b8)" d="M20.643 15.427c0.011 0.005 0.020 0.012 0.027 0.021l0.795 0.899c0-0.014 0-0.028 0-0.042s0-0.027 0-0.039v-0.845h0.163v1.193h-0.091c-0.013 0-0.026-0.002-0.037-0.007s-0.021-0.013-0.029-0.022l-0.794-0.899c0.001 0.014 0.001 0.027 0 0.041s0 0.025 0 0.036v0.85h-0.163v-1.193h0.096c0.011-0 0.022 0.002 0.033 0.006z"></path>
<path fill="#afb1b8" style="fill: var(--color1, #afb1b8)" d="M22.968 16.14v0.474h-0.182v-0.474l-0.503-0.719h0.163c0.014-0.001 0.028 0.003 0.039 0.010 0.010 0.008 0.018 0.017 0.025 0.027l0.314 0.464c0.013 0.020 0.024 0.038 0.033 0.055s0.016 0.034 0.023 0.051l0.024-0.051c0.009-0.019 0.019-0.037 0.031-0.054l0.31-0.467c0.007-0.009 0.014-0.018 0.024-0.025 0.011-0.008 0.025-0.012 0.039-0.012h0.164l-0.503 0.722z"></path>
<path fill="#afb1b8" style="fill: var(--color1, #afb1b8)" d="M15.577 13.419c0.079 0.009 0.159 0.016 0.24 0.022 1.226-0.477 2.264-1.257 2.982-2.243s1.087-2.134 1.059-3.301l-1.351-1.174c0.275 1.242 0.146 2.527-0.371 3.709s-1.403 2.217-2.559 2.987z"></path>
<path fill="#afb1b8" style="fill: var(--color1, #afb1b8)" d="M15.095 13.364l0.036 0.006c1.235-0.767 2.176-1.839 2.702-3.076s0.613-2.583 0.25-3.863l-1.925-1.672c0.779 1.375 1.092 2.913 0.904 4.437s-0.87 2.969-1.967 4.169z"></path>
<path fill="#afb1b8" style="fill: var(--color1, #afb1b8)" d="M21.623 9.276c-0.327 1.282-1.121 2.439-2.265 3.297-0.334 0.252-0.694 0.477-1.076 0.671 0.931-0.238 1.787-0.658 2.502-1.229s1.269-1.276 1.62-2.062l-0.781-0.678z"></path>
<path fill="#afb1b8" style="fill: var(--color1, #afb1b8)" d="M21.316 9.087l-1.112-0.966c-0.021 1.101-0.382 2.177-1.043 3.116s-1.601 1.707-2.72 2.224h0.005c0.249-0 0.499-0.013 0.746-0.039 1.046-0.371 1.97-0.961 2.689-1.717s1.212-1.656 1.434-2.618z"></path>
<path fill="#afb1b8" style="fill: var(--color1, #afb1b8)" d="M15.255 4.054l-1.326-1.154c-1.185 0.398-2.205 1.098-2.925 2.007s-1.107 1.987-1.111 3.091v0c0.004 1.22 0.477 2.404 1.343 3.364s2.076 1.642 3.438 1.938c1.216-1.287 1.928-2.878 2.033-4.541s-0.404-3.312-1.452-4.706z"></path>
<path fill="#afb1b8" style="fill: var(--color1, #afb1b8)" d="M24.38 8.909c-0.005-1.447-0.669-2.834-1.847-3.858s-2.774-1.6-4.44-1.605c-0.77-0.001-1.533 0.123-2.251 0.364l8.119 7.054c0.278-0.623 0.42-1.286 0.42-1.955z"></path>
</symbol>
<symbol id="icon-logo-4" viewBox="0 0 35 20">
<path fill="#2196f3" style="fill: var(--color2, #2196f3)" d="M8.049 7.034h-0.001c-0.799 0-1.447 0.576-1.447 1.286v0.001c0 0.71 0.648 1.286 1.447 1.286h0.001c0.799 0 1.447-0.576 1.447-1.286v-0.001c0-0.71-0.648-1.286-1.447-1.286z"></path>
<path fill="#2196f3" style="fill: var(--color2, #2196f3)" d="M18.732 6.623c-0.002-0.987-0.444-1.932-1.229-2.63s-1.849-1.091-2.959-1.093v0c-1.111 0.002-2.175 0.395-2.96 1.092s-1.228 1.644-1.23 2.631v5.441c0 0 8.378-0.829 8.379-5.44v-0.001z"></path>
<path fill="#2196f3" style="fill: var(--color2, #2196f3)" d="M3.667 13.85c0.002 0.687 0.31 1.344 0.856 1.83s1.286 0.759 2.059 0.761c0.772-0.002 1.512-0.276 2.058-0.761s0.854-1.143 0.856-1.829v-3.786c0 0-5.829 0.577-5.829 3.785zM6.581 14.528c-0.151 0-0.299-0.040-0.424-0.114s-0.223-0.18-0.281-0.304c-0.058-0.124-0.073-0.26-0.043-0.392s0.102-0.252 0.209-0.347c0.107-0.095 0.243-0.159 0.391-0.186s0.302-0.013 0.441 0.039c0.139 0.051 0.259 0.138 0.343 0.25s0.129 0.243 0.129 0.377c0 0.089-0.019 0.178-0.057 0.26s-0.094 0.158-0.165 0.221c-0.071 0.063-0.155 0.113-0.248 0.148s-0.192 0.052-0.293 0.052v-0.003z"></path>
<path fill="#2196f3" style="fill: var(--color2, #2196f3)" d="M12.473 14.155h-0.563v0.581h-0.293v-1.422h0.926v0.237h-0.633v0.367h0.563v0.236zM13.881 14.057c0 0.14-0.025 0.263-0.074 0.368s-0.12 0.187-0.213 0.244c-0.092 0.057-0.197 0.086-0.316 0.086-0.118 0-0.223-0.028-0.315-0.085s-0.164-0.137-0.215-0.242c-0.051-0.105-0.077-0.227-0.077-0.363v-0.070c0-0.14 0.025-0.263 0.075-0.369s0.122-0.188 0.214-0.245c0.092-0.057 0.198-0.086 0.316-0.086s0.224 0.029 0.315 0.086c0.092 0.057 0.164 0.138 0.214 0.245s0.076 0.229 0.076 0.368v0.063zM13.584 13.992c0-0.149-0.027-0.262-0.080-0.34s-0.13-0.116-0.228-0.116c-0.098 0-0.174 0.038-0.228 0.115s-0.080 0.188-0.081 0.336v0.069c0 0.145 0.027 0.258 0.080 0.338s0.13 0.12 0.23 0.12c0.098 0 0.174-0.038 0.227-0.115s0.079-0.19 0.080-0.338v-0.069zM14.831 14.363c0-0.055-0.020-0.098-0.059-0.127s-0.109-0.061-0.211-0.094c-0.102-0.033-0.182-0.066-0.241-0.098-0.161-0.087-0.242-0.205-0.242-0.353 0-0.077 0.021-0.145 0.064-0.205s0.106-0.108 0.187-0.142c0.081-0.034 0.173-0.051 0.273-0.051s0.192 0.019 0.272 0.056c0.079 0.036 0.141 0.088 0.185 0.155s0.066 0.143 0.066 0.228h-0.293c0-0.065-0.021-0.116-0.062-0.151s-0.099-0.055-0.173-0.055c-0.072 0-0.127 0.015-0.167 0.046s-0.060 0.070-0.060 0.119c0 0.046 0.023 0.085 0.069 0.116s0.116 0.061 0.206 0.088c0.167 0.050 0.288 0.112 0.364 0.187s0.114 0.167 0.114 0.277c0 0.123-0.047 0.22-0.14 0.29s-0.218 0.104-0.376 0.104c-0.109 0-0.209-0.020-0.299-0.060s-0.159-0.095-0.206-0.165c-0.047-0.070-0.070-0.15-0.070-0.242h0.294c0 0.157 0.094 0.235 0.281 0.235 0.070 0 0.124-0.014 0.163-0.042s0.059-0.068 0.059-0.119zM16.394 13.551h-0.436v1.185h-0.293v-1.185h-0.43v-0.237h1.158v0.237zM17.418 14.119h-0.562v0.381h0.66v0.235h-0.953v-1.422h0.951v0.237h-0.658v0.339h0.563v0.229zM18.214 14.215h-0.233v0.521h-0.293v-1.422h0.528c0.168 0 0.297 0.037 0.389 0.112s0.137 0.181 0.137 0.317c0 0.097-0.021 0.178-0.063 0.243s-0.105 0.116-0.19 0.154l0.308 0.581v0.014h-0.314l-0.267-0.521zM17.98 13.978h0.236c0.074 0 0.131-0.019 0.171-0.056s0.061-0.090 0.061-0.155c0-0.067-0.019-0.12-0.058-0.158s-0.096-0.058-0.175-0.058h-0.235v0.427zM19.756 14.235v0.501h-0.293v-1.422h0.555c0.107 0 0.201 0.020 0.281 0.059s0.144 0.095 0.188 0.167c0.044 0.072 0.065 0.153 0.065 0.245 0 0.139-0.048 0.249-0.144 0.33s-0.227 0.12-0.396 0.12h-0.257zM19.756 13.997h0.262c0.078 0 0.136-0.018 0.177-0.055s0.062-0.089 0.062-0.156c0-0.070-0.021-0.126-0.062-0.169s-0.098-0.065-0.17-0.066h-0.269v0.446zM21.609 14.119h-0.563v0.381h0.66v0.235h-0.953v-1.422h0.951v0.237h-0.658v0.339h0.563v0.229zM22.969 13.551h-0.436v1.185h-0.293v-1.185h-0.43v-0.237h1.158v0.237zM23.992 14.119h-0.563v0.381h0.66v0.235h-0.953v-1.422h0.951v0.237h-0.658v0.339h0.563v0.229zM24.788 14.215h-0.233v0.521h-0.293v-1.422h0.528c0.168 0 0.298 0.037 0.389 0.112s0.137 0.181 0.137 0.317c0 0.097-0.021 0.178-0.063 0.243s-0.105 0.116-0.19 0.154l0.308 0.581v0.014h-0.314l-0.267-0.521zM24.555 13.978h0.236c0.074 0 0.131-0.019 0.171-0.056s0.061-0.090 0.061-0.155c0-0.067-0.019-0.12-0.058-0.158s-0.096-0.058-0.175-0.058h-0.235v0.427zM26.276 14.363c0-0.055-0.020-0.098-0.059-0.127s-0.109-0.061-0.211-0.094c-0.102-0.033-0.182-0.066-0.241-0.098-0.161-0.087-0.242-0.205-0.242-0.353 0-0.077 0.022-0.145 0.064-0.205s0.106-0.108 0.187-0.142c0.081-0.034 0.173-0.051 0.273-0.051s0.192 0.019 0.272 0.056c0.079 0.036 0.141 0.088 0.185 0.155s0.066 0.143 0.066 0.228h-0.293c0-0.065-0.021-0.116-0.062-0.151s-0.099-0.055-0.173-0.055c-0.072 0-0.127 0.015-0.167 0.046s-0.060 0.070-0.060 0.119c0 0.046 0.023 0.085 0.069 0.116s0.116 0.061 0.206 0.088c0.167 0.050 0.288 0.112 0.364 0.187s0.114 0.167 0.114 0.277c0 0.123-0.047 0.22-0.14 0.29s-0.218 0.104-0.376 0.104c-0.109 0-0.209-0.020-0.299-0.060s-0.159-0.095-0.206-0.165c-0.047-0.070-0.070-0.15-0.070-0.242h0.294c0 0.157 0.094 0.235 0.281 0.235 0.070 0 0.124-0.014 0.163-0.042s0.059-0.068 0.059-0.119z"></path>
</symbol>
<symbol id="icon-logo-5" viewBox="0 0 35 20">
<path fill="#afb1b8" style="fill: var(--color1, #afb1b8)" d="M8.919 14.912c0.081 0.092 0.124 0.207 0.122 0.326 0.004 0.077-0.011 0.154-0.044 0.225s-0.083 0.135-0.146 0.186c-0.158 0.109-0.353 0.162-0.551 0.15h-0.968v-2.064h0.948c0.187-0.011 0.373 0.037 0.525 0.137 0.061 0.047 0.11 0.106 0.142 0.173s0.046 0.14 0.042 0.213c0.006 0.114-0.033 0.226-0.11 0.316-0.074 0.082-0.175 0.139-0.288 0.161 0.128 0.021 0.244 0.084 0.327 0.176zM7.784 14.6h0.405c0.092 0.006 0.184-0.018 0.258-0.069 0.030-0.025 0.054-0.057 0.069-0.092s0.021-0.073 0.018-0.11c0.003-0.037-0.003-0.075-0.018-0.11s-0.038-0.066-0.068-0.092c-0.076-0.052-0.171-0.077-0.265-0.070h-0.399v0.541zM8.486 15.392c0.033-0.026 0.058-0.058 0.075-0.095s0.024-0.076 0.021-0.115c0.002-0.040-0.005-0.080-0.022-0.116s-0.043-0.069-0.076-0.095c-0.079-0.054-0.177-0.080-0.275-0.075h-0.425v0.568h0.431c0.097 0.005 0.193-0.020 0.272-0.072z"></path>
<path fill="#afb1b8" style="fill: var(--color1, #afb1b8)" d="M10.857 15.799l-0.527-0.807h-0.198v0.807h-0.454v-2.064h0.859c0.217-0.014 0.431 0.049 0.598 0.175 0.12 0.112 0.192 0.26 0.204 0.416s-0.038 0.312-0.14 0.438c-0.106 0.111-0.251 0.185-0.41 0.21l0.562 0.825h-0.493zM10.131 14.711h0.371c0.258 0 0.387-0.104 0.387-0.313 0.003-0.043-0.004-0.085-0.021-0.125s-0.042-0.076-0.074-0.107c-0.081-0.062-0.186-0.092-0.292-0.084h-0.376l0.004 0.628z"></path>
<path fill="#afb1b8" style="fill: var(--color1, #afb1b8)" d="M13.337 15.384h-0.904l-0.16 0.415h-0.476l0.83-2.041h0.514l0.827 2.041h-0.476l-0.156-0.415zM13.216 15.071l-0.33-0.871-0.33 0.871h0.661z"></path>
<path fill="#afb1b8" style="fill: var(--color1, #afb1b8)" d="M16.441 15.799h-0.45l-1.010-1.403v1.403h-0.449v-2.064h0.449l1.010 1.412v-1.412h0.45v2.064z"></path>
<path fill="#afb1b8" style="fill: var(--color1, #afb1b8)" d="M19.011 15.305c-0.093 0.156-0.235 0.283-0.407 0.364-0.196 0.091-0.414 0.135-0.633 0.13h-0.802v-2.064h0.802c0.219-0.005 0.436 0.038 0.633 0.127 0.172 0.080 0.314 0.205 0.407 0.36 0.093 0.168 0.141 0.353 0.141 0.541s-0.048 0.374-0.141 0.541zM18.496 15.256c0.129-0.137 0.199-0.312 0.199-0.493s-0.071-0.355-0.199-0.493c-0.155-0.124-0.358-0.187-0.564-0.175h-0.313v1.336h0.313c0.206 0.012 0.408-0.051 0.564-0.175z"></path>
<path fill="#afb1b8" style="fill: var(--color1, #afb1b8)" d="M13.619 2.256c0 0 5.813 2.009 5.69 4.917v4.918c0 0-5.808-2.010-5.687-4.918l-0.002-4.917z"></path>
<path fill="#afb1b8" style="fill: var(--color1, #afb1b8)" d="M24.487 10.939c1.098-0.692 2.368-1.12 3.693-1.246v-1.54c-1.527 0.539-2.823 1.516-3.693 2.786z"></path>
<path fill="#afb1b8" style="fill: var(--color1, #afb1b8)" d="M23.827 11.403c0.899-1.657 2.456-2.935 4.353-3.572v-4.436c0 0-8.278 2.862-8.103 7.003v7.002c0 0 0.369-0.128 0.949-0.368 0-0.224 0-0.45 0.026-0.677 0.171-1.922 1.169-3.704 2.775-4.952z"></path>
<path fill="#afb1b8" style="fill: var(--color1, #afb1b8)" d="M23.040 14.004c0.043-0.486 0.141-0.966 0.29-1.434-1 1.078-1.605 2.416-1.731 3.826-0.012 0.133-0.019 0.266-0.022 0.403 0.47-0.207 1.017-0.465 1.592-0.768-0.147-0.667-0.19-1.349-0.129-2.028z"></path>
<path fill="#afb1b8" style="fill: var(--color1, #afb1b8)" d="M23.369 14.030c-0.055 0.613-0.021 1.231 0.102 1.836 2.262-1.239 4.803-3.154 4.705-5.468v-0.202c-1.616 0.166-3.128 0.812-4.303 1.841-0.275 0.637-0.445 1.309-0.504 1.992z"></path>
</symbol>
<symbol id="icon-logo-6" viewBox="0 0 35 20">
<path fill="#afb1b8" style="fill: var(--color1, #afb1b8)" d="M17.808 9.136c-0.148-0.197-0.218-0.429-0.202-0.663v-0.961c0-0.295 0.067-0.518 0.2-0.672s0.363-0.229 0.688-0.229c0.306 0 0.523 0.065 0.651 0.196 0.14 0.166 0.208 0.37 0.192 0.575v0.226h-0.547v-0.229c0.002-0.075-0.003-0.15-0.016-0.224-0.008-0.051-0.035-0.098-0.078-0.133-0.056-0.038-0.127-0.057-0.198-0.052-0.075-0.005-0.149 0.015-0.208 0.055-0.048 0.039-0.079 0.091-0.091 0.147-0.016 0.078-0.023 0.158-0.022 0.238v1.166c-0.009 0.113 0.016 0.225 0.070 0.328 0.027 0.035 0.065 0.062 0.109 0.079s0.093 0.024 0.141 0.018c0.070 0.005 0.14-0.014 0.194-0.053 0.045-0.038 0.073-0.088 0.082-0.142 0.013-0.077 0.018-0.156 0.017-0.234v-0.237h0.547v0.216c0.015 0.214-0.051 0.426-0.189 0.604-0.126 0.143-0.34 0.214-0.655 0.214s-0.553-0.076-0.687-0.235z"></path>
<path fill="#afb1b8" style="fill: var(--color1, #afb1b8)" d="M20.086 9.146c-0.138-0.15-0.207-0.368-0.207-0.656v-1.011c0-0.285 0.069-0.502 0.207-0.648s0.369-0.22 0.693-0.219c0.322 0 0.552 0.073 0.69 0.219s0.208 0.363 0.208 0.648v1.011c0 0.285-0.070 0.504-0.211 0.655s-0.369 0.226-0.687 0.226c-0.318 0-0.554-0.076-0.693-0.225zM21.033 8.903c0.049-0.094 0.072-0.196 0.066-0.299v-1.238c0.006-0.101-0.016-0.202-0.065-0.293-0.028-0.035-0.066-0.063-0.112-0.081s-0.095-0.023-0.144-0.017c-0.049-0.006-0.099 0-0.145 0.017s-0.084 0.045-0.112 0.080c-0.050 0.092-0.072 0.192-0.066 0.293v1.244c-0.007 0.103 0.016 0.206 0.066 0.299 0.032 0.032 0.071 0.057 0.115 0.074s0.092 0.026 0.141 0.026c0.048 0 0.096-0.009 0.141-0.026s0.083-0.043 0.115-0.074v-0.006z"></path>
<path fill="#afb1b8" style="fill: var(--color1, #afb1b8)" d="M22.334 6.641h0.589l0.443 1.865 0.453-1.865h0.573l0.058 2.692h-0.424l-0.045-1.871-0.437 1.871h-0.34l-0.453-1.878-0.042 1.878h-0.428l0.053-2.692z"></path>
<path fill="#afb1b8" style="fill: var(--color1, #afb1b8)" d="M25.11 6.641h0.917c0.528 0 0.793 0.255 0.793 0.764 0 0.488-0.278 0.732-0.835 0.731h-0.313v1.197h-0.566l0.003-2.692zM25.894 7.792c0.056 0.006 0.113 0.002 0.167-0.013s0.103-0.039 0.145-0.072c0.065-0.091 0.094-0.198 0.082-0.304 0.003-0.082-0.006-0.164-0.027-0.244-0.008-0.027-0.022-0.052-0.042-0.074s-0.044-0.040-0.072-0.054c-0.079-0.033-0.165-0.047-0.253-0.043h-0.22v0.805h0.22z"></path>
<path fill="#afb1b8" style="fill: var(--color1, #afb1b8)" d="M27.636 6.641h0.608l0.624 2.692h-0.528l-0.123-0.621h-0.542l-0.127 0.621h-0.536l0.624-2.692zM28.156 8.401l-0.212-1.13-0.212 1.13h0.423z"></path>
<path fill="#afb1b8" style="fill: var(--color1, #afb1b8)" d="M29.372 6.641h0.396l0.759 1.536v-1.536h0.47v2.692h-0.377l-0.763-1.603v1.603h-0.486l0.001-2.692z"></path>
<path fill="#afb1b8" style="fill: var(--color1, #afb1b8)" d="M32.098 8.307l-0.631-1.662h0.531l0.385 1.068 0.361-1.068h0.52l-0.623 1.662v1.027h-0.544v-1.027z"></path>
<path fill="#afb1b8" style="fill: var(--color1, #afb1b8)" d="M18.683 10.511v0.141h-0.462v1.094h-0.194v-1.094h-0.464v-0.141h1.12z"></path>
<path fill="#afb1b8" style="fill: var(--color1, #afb1b8)" d="M20.131 11.745h-0.149c-0.015 0.001-0.030-0.003-0.042-0.012-0.011-0.007-0.020-0.017-0.025-0.028l-0.134-0.293h-0.641l-0.134 0.293c-0.004 0.012-0.011 0.024-0.020 0.033-0.012 0.008-0.027 0.012-0.042 0.012h-0.149l0.566-1.235h0.197l0.573 1.23zM19.193 11.287h0.535l-0.227-0.502c-0.017-0.038-0.031-0.077-0.042-0.116-0.008 0.023-0.015 0.046-0.022 0.066l-0.020 0.052-0.224 0.502z"></path>
<path fill="#afb1b8" style="fill: var(--color1, #afb1b8)" d="M21.107 11.624c0.035 0.002 0.071 0.002 0.106 0 0.031-0.003 0.061-0.008 0.091-0.015 0.028-0.006 0.055-0.013 0.082-0.023 0.025-0.009 0.050-0.020 0.076-0.030v-0.278h-0.226c-0.006 0-0.011-0-0.016-0.002s-0.010-0.004-0.014-0.008c-0.004-0.003-0.007-0.006-0.009-0.010s-0.003-0.008-0.003-0.012v-0.095h0.439v0.473c-0.036 0.022-0.074 0.042-0.113 0.059s-0.082 0.031-0.126 0.042c-0.046 0.012-0.094 0.020-0.142 0.025-0.055 0.005-0.11 0.008-0.165 0.008-0.098 0.001-0.195-0.015-0.285-0.046-0.085-0.029-0.162-0.073-0.226-0.129-0.063-0.056-0.113-0.123-0.146-0.196-0.036-0.082-0.053-0.169-0.052-0.256-0.001-0.088 0.016-0.175 0.051-0.258 0.033-0.073 0.082-0.14 0.146-0.196s0.142-0.099 0.227-0.128c0.097-0.032 0.2-0.047 0.303-0.046 0.053-0 0.105 0.004 0.157 0.011 0.046 0.006 0.091 0.017 0.135 0.031 0.040 0.013 0.078 0.029 0.113 0.049s0.068 0.041 0.099 0.065l-0.054 0.076c-0.004 0.007-0.011 0.013-0.018 0.017s-0.017 0.006-0.026 0.007c-0.013-0-0.025-0.004-0.035-0.010-0.017-0.008-0.035-0.018-0.056-0.029-0.024-0.013-0.049-0.024-0.076-0.033-0.034-0.012-0.069-0.021-0.104-0.027-0.047-0.008-0.096-0.011-0.144-0.011-0.075-0.001-0.149 0.011-0.219 0.034-0.063 0.022-0.12 0.055-0.166 0.098-0.047 0.044-0.083 0.097-0.105 0.154-0.051 0.134-0.051 0.278 0 0.412 0.025 0.058 0.063 0.111 0.113 0.155 0.046 0.042 0.103 0.076 0.165 0.098 0.072 0.021 0.148 0.030 0.224 0.024z"></path>
<path fill="#afb1b8" style="fill: var(--color1, #afb1b8)" d="M22.912 11.605h0.618v0.141h-0.807v-1.235h0.194l-0.005 1.094z"></path>
<path fill="#afb1b8" style="fill: var(--color1, #afb1b8)" d="M24.174 11.745h-0.194v-1.235h0.194v1.235z"></path>
<path fill="#afb1b8" style="fill: var(--color1, #afb1b8)" d="M24.894 10.516c0.012 0.006 0.022 0.013 0.029 0.023l0.828 0.931c-0.001-0.015-0.001-0.029 0-0.044 0-0.014 0-0.027 0-0.040v-0.88h0.169v1.24h-0.097c-0.014 0.001-0.029-0.001-0.042-0.007-0.012-0.006-0.022-0.014-0.031-0.023l-0.827-0.93c0 0.015 0 0.028 0 0.042s0 0.026 0 0.038v0.88h-0.162v-1.235h0.101c0.011 0 0.022 0.002 0.032 0.006z"></path>
<path fill="#afb1b8" style="fill: var(--color1, #afb1b8)" d="M27.345 10.511v0.136h-0.686v0.408h0.556v0.131h-0.556v0.421h0.686v0.136h-0.886v-1.232h0.886z"></path>
<path fill="#afb1b8" style="fill: var(--color1, #afb1b8)" d="M7.054 2.885l8.598 2.108v7.386l-8.598-2.107v-7.387zM6.502 2.256v8.375l9.7 2.379v-8.374l-9.7-2.38z"></path>
<path fill="#afb1b8" style="fill: var(--color1, #afb1b8)" d="M11.701 16.897l-9.701-2.381v-8.374l9.701 2.38v8.375z"></path>
<path fill="#afb1b8" style="fill: var(--color1, #afb1b8)" d="M6.663 2.79l8.486 2.081-3.609 3.117-8.487-2.082 3.61-3.116zM6.502 2.256l-4.502 3.887 9.701 2.379 4.501-3.887-9.7-2.38z"></path>
<path fill="#afb1b8" style="fill: var(--color1, #afb1b8)" d="M12.247 16.426l3.955-3.416-3.955-0.971v4.387z"></path>
</symbol>
<symbol id="icon-twitter-1" viewBox="0 0 20 20">
<path fill="#afb1b8" style="fill: var(--color1, #afb1b8)" d="M20 3.799c-0.744 0.326-1.536 0.543-2.363 0.648 0.85-0.508 1.499-1.305 1.804-2.266-0.793 0.472-1.668 0.806-2.6 0.992-0.753-0.801-1.825-1.298-2.995-1.298-2.27 0-4.097 1.843-4.097 4.101 0 0.325 0.028 0.638 0.095 0.935-3.409-0.166-6.425-1.8-8.451-4.289-0.354 0.614-0.561 1.316-0.561 2.073 0 1.42 0.731 2.679 1.821 3.407-0.659-0.012-1.305-0.204-1.853-0.505 0 0.012 0 0.029 0 0.045 0 1.993 1.421 3.647 3.285 4.029-0.334 0.091-0.697 0.135-1.075 0.135-0.263 0-0.527-0.015-0.776-0.070 0.531 1.624 2.039 2.818 3.831 2.856-1.395 1.091-3.166 1.749-5.084 1.749-0.336 0-0.659-0.015-0.981-0.056 1.816 1.171 3.969 1.84 6.29 1.84 7.545 0 11.67-6.25 11.67-11.667 0-0.181-0.006-0.356-0.015-0.53 0.814-0.577 1.498-1.299 2.055-2.129z"></path>
</symbol>
</defs>
</svg>
